<?xml version="1.0" encoding="utf-8"?>
<!-- Generator: Adobe Illustrator 17.1.0, SVG Export Plug-In . SVG Version: 6.00 Build 0)  -->
<!DOCTYPE svg PUBLIC "-//W3C//DTD SVG 1.1//EN" "http://www.w3.org/Graphics/SVG/1.1/DTD/svg11.dtd">
<svg version="1.1" id="Layer_1" xmlns="http://www.w3.org/2000/svg" xmlns:xlink="http://www.w3.org/1999/xlink" x="0px" y="0px"
	 viewBox="0 0 1024 1024" enable-background="new 0 0 1024 1024" xml:space="preserve">
<path fill="#59C6FF" d="M175.1,347.5c-31.8,0-57.5,25.8-57.5,57.5l0,240.8c0,31.8,25.8,57.5,57.5,57.5c31.8,0,57.5-25.7,57.5-57.5
	l0-240.9C232.7,373.3,206.9,347.5,175.1,347.5 M638.9,131.2L679,57.9c2.1-3.8,0.7-8.7-3.1-10.9c-3.9-2.1-8.8-0.7-10.8,3.2
	l-40.5,74.1c-34.1-15.2-72.3-23.7-112.7-23.7c-40.3,0-78.5,8.5-112.4,23.5l-40.6-73.9c-2.1-3.9-7-5.3-10.8-3.2
	c-3.9,2.1-5.3,7-3.2,10.8l40.2,73.2c-78.9,40.7-132.2,118.2-132.2,207.1l518-0.1C770.9,249.3,717.7,172,638.9,131.2 M394,244.5
	c-11.9,0-21.6-9.7-21.7-21.7c0-11.9,9.7-21.7,21.7-21.7c12,0,21.7,9.8,21.7,21.7C415.8,234.8,406.1,244.5,394,244.5 M629.9,244.5
	c-12,0-21.7-9.7-21.7-21.7c0-11.9,9.7-21.7,21.7-21.8c11.9,0,21.7,9.9,21.7,21.8C651.6,234.8,641.9,244.5,629.9,244.5 M255,358.4
	l0.1,373.2c0,33.9,27.4,61.3,61.4,61.4l41.8,0l0,127.4c0,31.7,25.8,57.5,57.5,57.5c31.8,0,57.5-25.8,57.5-57.6l0-127.4l77.6,0
	l0,127.4c0,31.7,25.8,57.5,57.5,57.5c31.8,0,57.5-25.8,57.5-57.5l0-127.4l41.9,0c33.9,0,61.4-27.4,61.4-61.4l-0.1-373.2L255,358.4z
	 M906.3,404.9c0-31.8-25.7-57.5-57.5-57.5c-31.8,0-57.5,25.8-57.5,57.5l0,240.8c0,31.8,25.7,57.5,57.5,57.5
	c31.8,0,57.5-25.7,57.5-57.5L906.3,404.9z"/>
</svg>
