<?xml version="1.0" encoding="utf-8"?>
<!-- Generator: Adobe Illustrator 17.1.0, SVG Export Plug-In . SVG Version: 6.00 Build 0)  -->
<!DOCTYPE svg PUBLIC "-//W3C//DTD SVG 1.1//EN" "http://www.w3.org/Graphics/SVG/1.1/DTD/svg11.dtd">
<svg version="1.1" id="Layer_1" xmlns="http://www.w3.org/2000/svg" xmlns:xlink="http://www.w3.org/1999/xlink" x="0px" y="0px"
	 viewBox="0 0 1024 1024" enable-background="new 0 0 1024 1024" xml:space="preserve">
<g>
	<path fill="#59C6FF" d="M755.5,540c-1.1-113,92.1-167.2,96.3-169.9c-52.4-76.6-134.1-87.2-163.2-88.4
		c-69.4-7.1-135.6,40.9-170.8,40.9c-35.2,0-89.6-39.9-147.2-38.9c-75.8,1.1-145.6,44.1-184.6,111.9
		c-78.7,136.5-20.1,338.8,56.5,449.5c37.5,54.1,82.2,115.1,140.8,112.8c56.5-2.2,77.8-36.6,146.2-36.6s87.5,36.6,147.3,35.4
		c60.8-1.1,99.3-55.2,136.5-109.5c43-62.9,60.7-123.8,61.8-126.9C873.9,719.8,756.7,674.9,755.5,540z"/>
	<path fill="#59C6FF" d="M643.2,208.4c31.1-37.8,52.2-90.2,46.4-142.4c-44.9,1.8-99.2,29.8-131.4,67.5
		c-28.9,33.5-54.1,86.8-47.3,138C560.9,275.4,612,246.1,643.2,208.4z"/>
</g>
</svg>
