<?xml version="1.0" encoding="utf-8"?>
<!-- Generator: Adobe Illustrator 17.1.0, SVG Export Plug-In . SVG Version: 6.00 Build 0)  -->
<!DOCTYPE svg PUBLIC "-//W3C//DTD SVG 1.1//EN" "http://www.w3.org/Graphics/SVG/1.1/DTD/svg11.dtd">
<svg version="1.1" id="Layer_1" xmlns="http://www.w3.org/2000/svg" xmlns:xlink="http://www.w3.org/1999/xlink" x="0px" y="0px"
	 viewBox="0 0 1024 1024" enable-background="new 0 0 1024 1024" xml:space="preserve">
<circle fill="#59C6FF" cx="512" cy="512" r="155.9"/>
<path fill="#59C6FF" d="M511.1,326.2L511.1,326.2l376.8,0C819.4,187.9,676.8,92.7,512,92.7c-133.4,0-252.3,62.3-329.1,159.5
	L326.7,498C333.8,402.2,413.6,326.7,511.1,326.2z M512,697.8c-80.4,0-148.9-51.1-174.8-122.6L163.7,278.5
	c-44.8,66.7-71,147-71,233.5c0,211,155.9,385.6,358.9,414.9l144.7-249.3C571,690.6,542.3,697.8,512,697.8z M901.3,356.1H613.1
	c51,33.1,84.7,90.6,84.7,155.9c0,32.1-8.2,62.4-22.5,88.7l0.1,0.1L484.2,930.3c9.2,0.6,18.5,0.9,27.8,0.9
	c231.6,0,419.3-187.7,419.3-419.3C931.3,456.9,920.6,404.3,901.3,356.1z"/>
</svg>
