<?xml version="1.0" encoding="UTF-8" standalone="no"?>
<svg width="1024" height="1024" viewBox="0 0 1024 1024" version="1.1" xmlns="http://www.w3.org/2000/svg" xmlns:xlink="http://www.w3.org/1999/xlink">
    <g fill-rule="evenodd" fill="#ffffff">
        <path d="M102.708204,503.662185 C45.1916463,508.396953 1.40031752e-06,556.577156 1.40031752e-06,615.314856 L0,719.906956 C100.834026,898.142165 292.08903,1018.43694 511.431157,1018.43694 C731.601015,1018.43694 923.471368,897.23254 1024,717.886665 L1024,717.886668 L1024,615.314856 C1024,556.570963 978.802426,508.396838 921.291797,503.662216 L921.291797,409.388147 C921.291797,183.296528 738.047741,0 512.000001,0 C285.953073,0 102.708204,183.296885 102.708204,409.388147 L102.708204,503.662185 L102.708204,503.662185 Z M270.746307,503.280345 L753.253695,503.280345 L753.253695,409.388147 C753.253695,276.090641 645.232087,168.038102 512.000001,168.038102 C378.768633,168.038102 270.746307,276.091092 270.746307,409.388147 L270.746307,503.280345 L270.746307,503.280345 Z"></path>
    </g>
</svg>
