<svg viewBox="0 0 400 400" class="icon twitter">
    <path d="M125.792,365.023505 C276.736,365.023505 359.296,239.967505 359.296,131.519505 C359.296,127.967505 359.296,124.431505 359.056,120.911505 C375.117302,109.294078 388.981688,94.9095748 400,78.4315045 C385.022065,85.0683329 369.133268,89.4207629 352.864,91.3435045 C369.995904,81.0872174 382.817976,64.9558563 388.944,45.9515045 C372.83452,55.5107895 355.210338,62.2476968 336.832,65.8715045 C311.393324,38.821813 270.97151,32.2013059 238.232788,49.7223833 C205.494067,67.2434608 188.5804,104.548716 196.976,140.719505 C130.990332,137.411497 69.5116125,106.244677 27.84,54.9755045 C6.0579641,92.4738201 17.1838061,140.445256 53.248,164.527505 C40.1878592,164.140425 27.4124699,160.617315 16,154.255505 L16,155.295505 C16.0106901,194.360992 43.5480238,228.008067 81.84,235.743505 C69.7579135,239.038545 57.0812894,239.520213 44.784,237.151505 C55.5351669,270.58227 86.345193,293.484046 121.456,294.143505 C92.3957606,316.982416 56.4969522,329.380748 19.536,329.343505 C13.0064571,329.330969 6.48326504,328.935624 0,328.159505 C37.5301752,352.243929 81.1986144,365.018975 125.792,364.959505"></path>
</svg>
