<svg viewBox="0 0 1024 1024" xmlns="http://www.w3.org/2000/svg" class="icon linux">
    <path d="M863 830c-11-15-20-23.8-24.6-42.3-4.6-18.2-7-39-22-52-3.3-3-7-5.6-11.2-7.5-6.4-3-2-7-.3-13.3 3-12 5-23 5-35 2-25-1-49-8-73-12-43-33-82-59-118-22-31-48-59-69-91-20-31-28-63-28-100 0-24 0-48-2-72-3-37-10-76-32-108-25-36-65-50-107-50-55 0-109 20-132 73-18 41-16 87-14 130 4 59-2 119-42 167-53 63-105 140-116 224-2 11-2 21-2 32 .3 5 1 11 2 16-4 3-7.7 8-11 12-7 8-12.5 17-20 25-7.4 7-17.5 10-27 13-16 5.5-30.3 13-38.4 28.3-11.4 23-.4 47.7 0 71 0 20-12 37.3-10 58 3 19.5 19 30 37 34 21 5.4 43.5 6 65.3 9.4 11.3 2 23 4.3 34 8.4 6 2 10.2 4 14 6 42 22 109.3 39 144-7 1.4-2.5 3-5 4-7.4 3-5 6-4 12-4 10-1 20-3 30-5 24.3-4.3 49-8 74-5 25.4 3 50.4 8 76 7 5 20 21 38 39.7 47 46.5 22 98-9 128-44.4 2-3 2-3 6-7 6.7-6.8 14-12.5 21.8-17.5 16-11 34-18 51.3-27 15-7.3 32-16.3 38-32.7 6-16.7-3-33-13-46zM488 231.4c7.2-16.3 21.8-30.5 40.6-30.4 30 0 46.4 32.6 47 58.8 0 12.3-2.3 24-8 35-2.5 5-4.2 10.8-10 8.5-6.3-1.6-14.3-5.7-20-7.7 11.4-14 13.7-51.7-8-58-21.5-6.4-28 27.3-25.5 41.7-4-2-8-4-13-5.5-8-2.8-8-2.3-9-11.4 0-10.6 2-21.2 6-31zm31.5 68c15 6.8 37.5 9.2 47.7 23.7 14.3 21-12.5 41-28.5 49-8.8 4-17.2 7-25.5 12-10 7-19.8 13-31.4 16-23 6-40.2-2-56.7-17-13-12-34-19-39-37-6-20 20-29 32-39 15-12 28-25 49-25s36 12 54 20zM413 210c18 .2 28.7 19.3 32.8 34.2 2 7 2.7 14.6 2.7 22 0 8.7-12 12.3-19.3 16.3 1.5-11-9.3-53-25.2-33.7-10 12-7.7 39.2 5.5 48.4l-8.8 6.6c-5.3 3.8-8.8-4.7-11.3-9.3-6-11-8.6-23.6-8.5-36 0-18.6 9-48.7 32-48.4zm-59 758.4c-33.4 16-71.6 1-102.3-13.8-32.2-15.4-67.4-12-101-20.6-35.2-9-20.6-36.6-15.8-62 5-31.2-20-69.8 20-85.5 12-5 26-8 36-17.7 11-12.3 19-31.6 35-39.2 3-1.7 7-2.5 11-2.4 36 0 56 49 69 76.2 16 34.5 45 59.8 64 93 13 25.3 10 58.4-18 72zM612.7 834c-2.2 11.6-5 36.8-14.6 43.5-23 16-49 27.8-76 34-28 6-57 6-84-2-14-4.3-28-10.7-41-19-12-7.7-21-27-31-38.7 31 0 39-24.6 26-49-13-25-37-44.6-59-60.6-24-17-30-25.7-35-51-23-113.2 91-205.7 97-320 29 21 54 48.4 94 37 18-5.2 32-16.7 49-25 15-8 30-12 41-27.6 17 66 45 128.3 75 188.8 17 33.4 26 56 32 92.8 107 8 111 84.2 91 85.8 7-20-12-32.8-27-41-18-10-48-24.5-69-13-9 4.7-13 14.2-14 23.8-1 8.7-20 15.7-26 24.6-17 22.7-19 54-21 81-1 12-1 24-3 35.8zm195.5 66c-13.8 6.6-27.6 13.7-40 23-15.4 11.2-26 27-41 39-23 18.6-58 32.2-86 15.7-31.6-18.8-28.4-53.8-20-84.8 5-20 12.3-39 15.3-59 2.7-18 2-35 4.3-53 2.6-21 7.4-46 27.8-56 1 15 6.4 32 18.5 42 14 11 31 8 46 1 13-6 25-22 38-22 15-1 29 3 36 16 8 14 8 31 14 47 6 14 18 23 26 37 16 29-16 41-38 52z"/>
    <path d="M551.3 331.5c-7-4.7-27.2 12.7-38.6 19.3-14.3 8.2-30 16-46.6 17.4-14 1.2-30-2.7-41-12-9-7.4-25-23.4-28-20.4-4 4.3 11 15.7 18 21 15 11.8 33 19.5 52 18 20-1.4 38-11.2 55-21 8-5 16-10.4 25-14 5-2 12-4.4 6-8.3z"/>
</svg>
