<svg viewBox="0 0 1024 1024" class="icon padlock">
    <g transform="translate(-367.000000, -250.000000)">
        <path fill-rule="evenodd" d="M879,1274 C1161.76979,1274 1391,1044.76979 1391,762 C1391,479.230208 1161.76979,250 879,250 C596.230208,250 367,479.230208 367,762 C367,1044.76979 596.230208,1274 879,1274 Z M574.118136,815.656492 C531.221592,819.187739 497.517117,855.121117 497.517117,898.928404 L497.517116,976.934457 C572.720352,1109.86443 715.360646,1199.58173 878.948656,1199.58173 C1043.154,1199.58173 1186.25323,1109.18602 1261.2287,975.427699 L1261.2287,975.427701 L1261.2287,898.928404 C1261.2287,855.116498 1227.5198,819.187653 1184.62768,815.656515 L1184.62768,745.345774 C1184.62768,576.723911 1047.96204,440.019145 879.372907,440.019145 C710.784375,440.019145 574.118136,576.724178 574.118136,745.345774 L574.118136,815.656492 Z M699.442985,815.371711 L1059.30283,815.371711 L1059.30283,745.345774 C1059.30283,645.930883 978.739007,565.343993 879.372907,565.343993 C780.007342,565.343993 699.442985,645.931219 699.442985,745.345774 L699.442985,815.371711 Z"/>
    </g>
</svg>
