<?xml version="1.0" encoding="UTF-8"?>
<svg width="996px" height="735px" viewBox="0 0 996 735" version="1.1" xmlns="http://www.w3.org/2000/svg" xmlns:xlink="http://www.w3.org/1999/xlink">
    <!-- Generator: Sketch 44.1 (41455) - http://www.bohemiancoding.com/sketch -->
    <title>undraw_reading_0re1 (1)</title>
    <desc>Created with Sketch.</desc>
    <defs>
        <path d="M142,71 C142,110.212327 110.212327,142 71,142 C31.7876734,142 0,110.212327 0,71 C0,31.7876734 31.7876734,0 71,0 C110.212327,0 142,31.7876734 142,71 Z M101.44669,60.8853629 C102.860105,51.4380685 95.6662016,46.3592782 85.8295524,42.9713185 L89.0205444,30.1735685 L81.2297258,28.2322339 L78.1231895,40.6927339 C76.0750685,40.1822782 73.9714073,39.7010242 71.8812016,39.2240645 L75.0100685,26.6816855 L67.2235444,24.7403508 L64.0305484,37.5335202 C62.3351371,37.1473145 60.6709315,36.7656895 59.0556815,36.3643105 L59.0645565,36.3242298 L48.3200806,33.6416895 L46.247625,41.9618589 C46.247625,41.9618589 52.0281129,43.2865242 51.9061532,43.3684032 C55.0616452,44.1559879 55.6319355,46.2439032 55.5363145,47.8989476 L51.9015726,62.4782823 C52.1191532,62.5338226 52.4008629,62.6136976 52.7114879,62.7379476 C52.4518226,62.6735323 52.1744073,62.6025323 51.8881169,62.5338226 L46.7932944,82.9572016 C46.4070887,83.9157016 45.4285484,85.3534516 43.2229677,84.8077823 C43.3005524,84.9208669 37.5601452,83.3943669 37.5601452,83.3943669 L33.6923629,92.3114516 L43.8310484,94.8385363 C45.717129,95.3112016 47.5657056,95.8059113 49.3850806,96.2717056 L46.160879,109.21575 L53.9428226,111.157085 L57.1358185,98.3504597 C59.1995567,98.9097614 61.2692699,99.4467779 63.3445968,99.9614153 L60.1624798,112.707919 L67.9532984,114.649254 L71.1775,101.729544 C84.4625161,104.24346 94.4526169,103.229419 98.6573629,91.2149597 C102.045895,81.5412097 98.4887379,75.961125 91.4989597,72.322375 C96.5892016,71.1491573 100.423774,67.8012782 101.44669,60.8853629 Z M83.6460161,85.8438669 C81.2383145,95.5176169 64.9489677,90.2879516 59.6677702,88.9767419 L63.9460927,71.8282379 C69.227004,73.1460323 86.1622218,75.7552823 83.6460161,85.8438669 Z M86.0557218,60.7456532 C83.8590161,69.5450726 70.300879,65.0743629 65.9028871,63.9784435 L69.7815484,48.4251492 C74.1798266,49.5210685 88.3434677,51.5666129 86.0557218,60.7456532 Z" id="path-1"></path>
        <filter x="-4.9%" y="-3.5%" width="109.9%" height="109.9%" filterUnits="objectBoundingBox" id="filter-2">
            <feOffset dx="0" dy="2" in="SourceAlpha" result="shadowOffsetOuter1"></feOffset>
            <feGaussianBlur stdDeviation="2" in="shadowOffsetOuter1" result="shadowBlurOuter1"></feGaussianBlur>
            <feColorMatrix values="0 0 0 0 0   0 0 0 0 0   0 0 0 0 0  0 0 0 0.0938915308 0" type="matrix" in="shadowBlurOuter1"></feColorMatrix>
        </filter>
    </defs>
    <g id="Page-1" stroke="none" stroke-width="1" fill="none" fill-rule="evenodd">
        <g id="undraw_reading_0re1-(1)" transform="translate(-11.000000, 0.000000)" fill-rule="nonzero">
            <ellipse id="Oval" fill-opacity="0.1" fill="#000000" cx="502" cy="701.69614" rx="259" ry="32.5"></ellipse>
            <path d="M940.12537,423.80857 L840,471.19614 L928.6153,404.93424 C914.212857,382.45383 898.033186,361.162951 880.23145,341.26578 L446,449.19614 L838.2334,299.57261 C820.309697,283.758309 801.274999,269.249702 781.27576,256.15842 L119.60925,362.73557 C49.3570243,450.585627 11.0604341,559.710564 11.00635,672.19614 L1006.99365,672.19614 C1006.95331,584.958164 983.88696,499.276373 940.12537,423.80857 Z" id="Shape" fill-opacity="0.0614809783" fill="#000000"></path>
            <path d="M727.12317,225.39151 C659.189966,192.258053 584.582635,175.089117 509,175.19614 C355.17035,175.19614 217.63861,244.94883 126.28967,354.54483 C282.71606,320.27036 555.06689,260.9393 727.12317,225.39151 Z" id="Shape" fill-opacity="0.06" fill="#000000"></path>
            <path d="M208,132.77087 C208,126.27401 198.7362,121.00728 187.30868,121.00728 C187.08251,121.00728 186.85875,121.01286 186.63432,121.01696 C183.18706,110.44963 166.89116,102.44696 147.30547,102.44696 C130.64159,102.44696 116.35961,108.24034 110.34547,116.4771 C105.901988,115.301145 101.323109,114.714874 96.72669,114.73338 C79.20451,114.73336 65,122.80907 65,132.77087 C65,141.82005 76.72185,149.31143 92.00353,150.60838 C103.10817,152.63875 120.45387,153.94538 139.94853,153.94538 C173.04524,153.94538 197.26243,147.63196 197.8698,142.88638 C203.93431,140.83535 208,137.0738 208,132.77087 Z" id="Shape" fill-opacity="0.06" fill="#000000"></path>
            <path d="M708,137.77087 C708,131.27401 698.7362,126.00728 687.30868,126.00728 C687.08251,126.00728 686.85875,126.01286 686.63432,126.01696 C683.18706,115.44963 666.89116,107.44696 647.30547,107.44696 C630.64159,107.44696 616.35961,113.24034 610.34547,121.4771 C605.901988,120.301145 601.323109,119.714874 596.72669,119.73338 C579.20451,119.73336 565,127.80907 565,137.77087 C565,146.82005 576.72185,154.31143 592.00353,155.60838 C603.10817,157.63875 620.45387,158.94538 639.94853,158.94538 C673.04524,158.94538 697.26243,152.63196 697.8698,147.88638 C703.93431,145.83535 708,142.0738 708,137.77087 Z" id="Shape" fill-opacity="0.06" fill="#000000"></path>
            <path d="M987,53.22591 C987,41.82233 970.73976,32.57791 950.68167,32.57791 C950.28467,32.57791 949.89194,32.58771 949.49801,32.59491 C943.44722,14.04665 914.84392,-2e-05 880.46624,-2e-05 C851.21705,-2e-05 826.14869,10.16876 815.5924,24.6263 C807.792997,22.5622159 799.755942,21.5331703 791.6881,21.56565 C760.9324,21.56565 736,35.74042 736,53.22589 C736,69.10942 756.57472,82.25862 783.39781,84.53508 C802.88916,88.09888 833.33512,90.39226 867.55305,90.39226 C925.64588,90.39226 968.15297,79.31066 969.21905,70.98103 C979.86372,67.38107 987,60.77861 987,53.22591 Z" id="Shape" fill-opacity="0.06" fill="#000000"></path>
            <path d="M570.16983,289.90737 C549.48525,254.95683 508.56246,253.32798 508.56246,253.32798 C508.56246,253.32798 468.68553,248.22856 443.10474,301.45866 C419.26139,351.07349 386.35454,398.97766 437.807,410.59209 L447.10081,381.66559 L452.85641,412.74559 C460.182253,413.272494 467.531441,413.398098 474.87101,413.12184 C529.97244,411.34284 582.44822,413.64232 580.75858,393.86961 C578.51249,367.58463 590.07254,323.53677 570.16983,289.90737 Z" id="Shape" fill="#2F2E41"></path>
            <path d="M434.8692,595.98589 C434.261697,599.830172 433.379912,603.62606 432.2306,607.34448 C430.93624,610.98416 428.93789,614.35017 427.75441,618.02739 C423.982,629.74874 429.21168,642.81775 437.5643,651.86511 C444.807686,659.679636 454.157375,665.231499 464.48557,667.85101 C472.02073,669.74613 479.85557,670.01889 487.62089,670.28221 C509.12359,671.01137 531.17954,671.66372 551.55462,664.75331 C557.991917,662.516269 564.209691,659.691578 570.12929,656.31497 C571.998324,655.424503 573.644958,654.127963 574.94902,652.51997 C576.50302,650.30756 576.70183,647.43825 576.68827,644.73465 C576.64255,635.61909 574.79455,626.55002 575.23332,617.44491 C575.47632,612.4016 576.42022,607.3622 575.95561,602.33446 C574.637946,590.634518 566.111406,581.024078 554.65167,578.32235 C548.87167,577.08115 542.87667,577.75749 536.99213,578.3233 C521.717313,579.791013 506.377452,580.476908 491.0326,580.3783 C475.35408,580.27823 459.77237,577.88492 444.17189,577.63497 C439.55838,577.56105 439.65158,578.98335 438.1828,583.44838 C436.829892,587.557926 435.723392,591.744536 434.8692,595.98589 L434.8692,595.98589 Z" id="Shape" fill="#2F2E41"></path>
            <path d="M479.36353,370.90041 C478.61008,374.84551 477.79572,378.93491 475.42493,382.17696 C472.69727,385.90704 468.24993,388.03831 465.31555,391.60806 C460.89872,396.98127 460.6452,404.54224 460.62699,411.49777 C460.61022,417.90534 460.74037,424.7397 464.31359,430.05847 C466.63259,433.51038 470.16126,435.93047 473.60982,438.25447 C487.01009,447.28508 501.49049,456.47782 517.64692,456.77564 C524.34113,456.89903 531.51883,455.17024 535.92354,450.12781 C537.825322,447.759296 539.320673,445.091471 540.3486,442.23315 C544.47969,432.049678 546.983909,421.279988 547.76952,410.31861 C548.13746,405.16161 548.1023,399.85413 546.35682,394.98753 C544.39409,389.51521 540.42548,385.01259 537.80259,379.82423 C534.702066,373.654716 533.568034,366.682787 534.55343,359.84867 C534.683956,359.367454 534.64367,358.855874 534.43943,358.40102 C534.002121,357.907515 533.359143,357.64698 532.70165,357.69687 L500.66605,355.39067 C497.682421,355.242416 494.711406,354.902535 491.77138,354.37313 C490.04438,354.02198 485.48312,351.5693 483.83645,352.22149 C480.78831,353.42876 479.98833,367.6289 479.36353,370.90041 Z" id="Shape" fill="#FFB8B8"></path>
            <path d="M479.36353,370.90041 C478.61008,374.84551 477.79572,378.93491 475.42493,382.17696 C472.69727,385.90704 468.24993,388.03831 465.31555,391.60806 C460.89872,396.98127 460.6452,404.54224 460.62699,411.49777 C460.61022,417.90534 460.74037,424.7397 464.31359,430.05847 C466.63259,433.51038 470.16126,435.93047 473.60982,438.25447 C487.01009,447.28508 501.49049,456.47782 517.64692,456.77564 C524.34113,456.89903 531.51883,455.17024 535.92354,450.12781 C537.825322,447.759296 539.320673,445.091471 540.3486,442.23315 C544.47969,432.049678 546.983909,421.279988 547.76952,410.31861 C548.13746,405.16161 548.1023,399.85413 546.35682,394.98753 C544.39409,389.51521 540.42548,385.01259 537.80259,379.82423 C534.702066,373.654716 533.568034,366.682787 534.55343,359.84867 C534.683956,359.367454 534.64367,358.855874 534.43943,358.40102 C534.002121,357.907515 533.359143,357.64698 532.70165,357.69687 L500.66605,355.39067 C497.682421,355.242416 494.711406,354.902535 491.77138,354.37313 C490.04438,354.02198 485.48312,351.5693 483.83645,352.22149 C480.78831,353.42876 479.98833,367.6289 479.36353,370.90041 Z" id="Shape" fill="#000000" opacity="0.1"></path>
            <circle id="Oval" fill="#FFB8B8" cx="510" cy="328.19614" r="47"></circle>
            <path d="M485.95552,433.4648 C488.40516,436.02523 491.0009,438.56044 494.21084,440.06139 C497.478823,441.412037 500.988447,442.080271 504.52411,442.02504 C512.9963,442.26336 522.18072,440.71097 528.07439,434.62004 C535.67163,426.76852 535.42139,414.10474 541.37639,404.94488 C541.856202,404.114406 542.510983,403.398289 543.29529,402.84623 C544.294153,402.302425 545.422993,402.042885 546.55906,402.09583 C554.07997,402.02552 560.63142,406.90338 566.54406,411.55197 C569.19278,413.63443 571.9074,415.79186 573.5784,418.71763 C574.747491,420.998753 575.548106,423.450566 575.95052,425.98204 C578.88465,440.30519 579.8349,454.95012 580.77798,469.54026 C581.29888,477.59905 581.82003,485.6656 581.78133,493.74112 C581.65379,520.34653 575.46982,546.507 569.32033,572.39227 C568.52797,575.72759 567.44363,579.45568 564.4105,581.05327 C563.058473,581.661174 561.606301,582.015609 560.12624,582.09894 C542.51281,584.1675 524.86293,586.23856 507.13055,586.51166 C500.21055,586.61824 493.29355,586.45073 486.37955,586.00913 C485.189333,585.993408 484.009267,585.787687 482.88394,585.39974 C481.356644,584.666402 480.044135,583.5518 479.07306,582.16348 C469.4814,570.07672 468.91524,553.36659 468.97654,537.93655 C469.12644,500.21143 470.474307,462.516453 473.02014,424.85162 C473.23034,421.7428 473.27623,417.96718 471.03614,415.52162 C475.06954,421.97867 480.67962,427.95028 485.95552,433.4648 Z" id="Shape" fill="#D0CDE1"></path>
            <path d="M476,379.19614 C474.4126,382.06961 462.70938,389.20494 460.44995,391.58651 C447.82619,404.89271 424.78601,404.39341 413.24067,418.64541 C409.17867,423.65972 407.06822,429.96012 405.51607,436.22384 C403.32083,445.08278 402.14866,454.74426 405.82607,463.09747 C409.3646,471.13513 416.8136,476.69192 421.87099,483.87162 C427.42393,491.75483 429.92065,501.32667 432.31332,510.66773 C434.07998,517.56483 435.86125,524.63273 435.17323,531.71921 C434.39096,539.77634 430.49204,547.15383 428.19001,554.91462 C425.88798,562.67541 425.49065,571.91862 430.8133,578.01769 C434.72368,582.49849 440.8572,584.27484 446.7198,585.27412 C454.22867,586.402386 461.800562,587.061557 469.39144,587.2478 C476.09319,587.5439 483.48044,587.60147 488.63244,583.30516 C492.6976,579.91516 494.46444,574.41402 494.69313,569.12579 C494.92182,563.83756 493.82156,558.59616 493.13238,553.34805 C492.41795,547.9076 492.14338,542.41975 491.91368,536.9374 C490.88296,512.338787 490.742313,487.724363 491.49174,463.09413 C491.64785,457.96892 491.83718,452.78077 490.74434,447.771 C489.30706,441.1823 485.74617,435.294 482.77494,429.24024 C476.8774,417.22418 474.08832,405.55149 474.99994,392.19614 C475.89984,379.01383 481.64862,368.97086 476,379.19614 Z" id="Shape" fill="#FF6666"></path>
            <path d="M542,380.19614 C544.41788,382.68119 552.63379,383.50042 555.70952,385.10083 C558.602649,386.437314 561.621597,387.482571 564.72174,388.22115 C575.940972,391.457738 586.612492,396.355582 596.38154,402.75186 C598.411326,403.939385 600.205867,405.489441 601.67594,407.32496 C603.39665,409.71871 604.02123,412.7056 604.60461,415.59533 C606.11061,423.05545 607.62419,430.60551 607.28576,438.2086 C606.92652,446.2792 604.49551,454.0956 602.08376,461.80579 L593.07249,490.61507 C586.34616,512.11918 579.57717,533.835 577.68449,556.28692 C576.637398,568.73031 577.102965,581.25476 579.071,593.58607 C579.269,594.8258 579.43512,596.24686 578.61648,597.1987 C578.02279,597.785537 577.241667,598.144949 576.40976,598.21406 C572.0605,598.89412 567.85148,596.67651 563.91093,594.71424 C551.866868,588.720525 539.013312,584.514748 525.75578,582.2296 C530.936408,574.742758 534.933513,566.502954 537.60664,557.79973 C539.124773,552.273424 540.320307,546.663525 541.18719,540.99843 L545.37919,516.75328 C547.084684,507.891557 548.285286,498.940087 548.97519,489.94215 C549.292087,486.565419 549.095357,483.160161 548.3917,479.84239 C547.425652,476.685083 546.142921,473.633514 544.56307,470.73422 C537.65451,456.36367 534.41298,439.9643 537.13124,424.25278 C538.32083,417.37695 540.63256,410.49192 539.6686,403.58086 C538.74179,396.93615 539.705,391.77205 538.00013,385.19614 C531,358.19614 537.45114,375.52097 542,380.19614 Z" id="Shape" fill="#FF6666"></path>
            <path d="M413.12112,441.36641 C409.97158,447.90215 404.70606,453.47 402.91392,460.5002 C402.216559,463.785814 401.917737,467.143503 402.02392,470.50063 C401.98145,475.56029 401.95392,480.72255 403.50751,485.53796 C404.50776,488.63816 406.13505,491.49723 407.30737,494.53654 C408.941505,498.782743 409.669526,503.323774 409.44468,507.86801 C409.12839,514.16356 406.98963,520.27466 406.82248,526.57594 C406.55963,536.48523 411.14296,545.80078 415.61521,554.64736 C417.893709,549.004858 422.546399,544.655633 428.329538,542.762304 C434.112676,540.868974 440.436626,541.624582 445.61089,544.82714 C446.79068,543.73758 446.91667,541.9484 446.96283,540.34314 C447.29341,528.846833 447.61228,517.350197 447.91944,505.85323 C448.40354,488.07242 448.86472,470.05401 444.77444,452.74328 C442.92769,444.92744 440.05415,437.1418 434.78634,431.07964 C432.01255,427.88764 422.59625,419.4797 418.04299,423.05564 C415.99536,424.66374 416.47393,429.04118 416.14948,431.25781 C415.659767,434.761698 414.638575,438.170415 413.12112,441.36641 L413.12112,441.36641 Z" id="Shape" fill="#FF6666"></path>
            <path d="M608.20643,422.53197 C609.69606,427.17068 609.78517,432.12722 609.81484,436.99916 C609.87536,446.937393 609.74365,456.874313 609.41971,466.80992 C609.25385,471.89631 609.02548,477.05278 607.48322,481.90256 C606.46612,485.10093 604.89654,488.10019 603.84613,491.28778 C600.69813,500.84078 602.41813,511.20196 602.68803,521.25668 C602.878604,524.510988 602.600884,527.7758 601.86337,530.95116 C600.20205,537.1843 595.73737,542.22087 592.62126,547.86904 C589.66179,553.23326 587.87607,559.24596 584.34149,564.24996 C580.80691,569.25396 574.68821,573.21902 568.75749,571.68286 C564.26386,570.51892 561.07086,566.54142 558.86229,562.45858 C554.042893,553.481654 552.394616,543.140796 554.18435,533.11041 C556.40164,520.90684 563.56996,510.08068 566.15517,497.94972 C569.70523,481.29122 564.30974,464.10096 564.47031,447.06915 C564.397075,444.399347 564.759203,441.735441 565.54247,439.18207 C566.89847,435.29167 569.81084,432.1849 572.50132,429.06476 C575.863386,425.165558 578.986637,421.066657 581.85398,416.79049 C583.78011,413.91792 586.3961,406.5297 589.81098,405.91539 C597.43514,404.54386 606.31489,416.64168 608.20643,422.53197 Z" id="Shape" fill="#FF6666"></path>
            <path d="M373.56045,588.57727 C369.344404,587.517626 365.000345,587.055832 360.65575,587.20544 C351.421499,587.715875 342.852244,592.171205 337.130173,599.436866 C331.408101,606.702528 329.085421,616.077348 330.75361,625.174 C331.806375,630.045022 333.527155,634.747216 335.86713,639.14718 C339.28948,646.09246 343.39413,653.0218 349.72979,657.4725 C353.43599,660.07605 357.72547,661.69933 361.96397,663.29605 L395.33267,675.86662 C400.24158,677.71589 405.15122,679.56543 410.10873,681.28018 C435.0147,689.888978 460.981026,695.051142 487.28592,696.62318 C495.29834,697.1003 503.43206,697.23307 511.24865,695.40895 C513.10358,694.97607 515.08224,694.33077 516.15619,692.75763 C516.792229,691.649444 517.167232,690.41083 517.25269,689.13595 L519.30601,674.76132 C519.59513,672.73732 519.87331,670.60685 519.13149,668.7016 C518.19087,666.28576 515.83309,664.76603 513.585,663.47484 C491.64744,650.87499 466.03271,643.92375 447.56756,626.63067 C443.22056,622.5596 439.58282,616.10654 434.30127,613.34115 C428.31206,610.20522 421.25863,608.41544 415.06795,605.52573 C401.53437,599.20846 388.22826,591.94896 373.56045,588.57727 Z" id="Shape" fill="#2F2E41"></path>
            <path d="M406.87425,607.95635 C418.66868,611.65207 468.4648,637.25647 477,646.19614 C475.85593,646.60833 437.039,624.85472 435.87422,624.50514 C425.28666,621.32759 414.64022,618.12919 404.58578,613.47898 C402.56311,612.54348 391.44525,608.14641 391.94878,605.59434 C392.51691,602.71452 404.78042,607.30025 406.87425,607.95635 Z" id="Shape" fill="#000000" opacity="0.1"></path>
            <path d="M554.0172,704.07826 C554.686512,704.127346 555.350889,703.931818 555.88691,703.528 C556.361863,702.917958 556.572377,702.142949 556.47133,701.37645 C556.45301,694.848663 556.434697,688.32088 556.41639,681.7931 C550.78496,679.11001 544.48582,678.24998 538.30287,677.42353 L509.45421,673.56745 C510.11702,673.65605 504.94357,685.99279 505.73681,687.63979 C507.13492,690.54263 517.81955,693.11534 520.835,694.48594 C531.31779,699.25062 542.21076,704.48882 554.0172,704.07826 Z" id="Shape" fill="#FFB8B8"></path>
            <path d="M463.505,681.72533 C458.05812,682.59289 451.97869,683.35978 448.4512,687.59983 C443.97788,692.97678 445.8822,700.99247 448.01613,707.65345 C448.333217,709.000933 448.969617,710.252433 449.87168,711.30245 C451.32798,712.73912 453.55962,712.94961 455.60123,713.07889 C460.56871,713.39343 465.85511,713.63989 470.19538,711.20329 C472.1613,709.904119 474.053928,708.497308 475.86461,706.98929 C479.065186,704.8596 482.583357,703.251139 486.28795,702.22388 C493.098276,700.081688 500.108631,698.636973 507.21102,697.91199 C510.009598,697.784491 512.779997,697.296136 515.45349,696.45904 C518.07238,695.47257 520.49735,693.5165 521.25815,690.82337 C522.26351,687.26452 520.19515,683.63614 518.21136,680.51505 C515.74022,676.62712 513.12224,672.53335 509.43764,669.67121 C504.06225,665.49569 501.40321,668.70106 495.98852,671.37307 C485.740192,676.43105 474.790161,679.920744 463.505,681.72533 L463.505,681.72533 Z" id="Shape" fill="#FFB8B8"></path>
            <path d="M449.27064,686.6316 L414.68494,676.40927 C410.47867,675.16604 406.20054,673.91194 401.81438,673.91519 C397.42822,673.91844 392.83921,675.35659 389.99457,678.69519 C387.31269,681.8428 386.54508,686.14471 385.87649,690.2255 L384.44629,698.95492 C383.71948,703.39111 382.99134,707.91262 383.64552,712.3601 C384.2997,716.80758 386.57008,721.2509 390.5163,723.4039 C395.3023,726.01505 401.16812,724.73968 406.50956,723.64749 C417.298866,721.442136 428.273058,720.265314 439.28465,720.13284 C443.42437,720.08333 447.76644,720.13519 451.42446,718.19646 C455.77273,715.89191 458.37412,711.01906 458.82146,706.11821 C459.502,698.66136 457.01653,688.92107 449.27064,686.6316 Z" id="Shape" fill="#2F2E41"></path>
            <path d="M567.6123,677.72348 C572.09582,676.93768 576.05277,674.38948 580.34895,672.88548 C586.39604,670.7684 592.94917,670.76843 599.35611,670.79181 C601.70811,670.80039 604.21272,670.85313 606.17054,672.15654 C608.99269,674.03538 609.716,677.79535 610.19587,681.15154 L613.09111,701.40116 C613.63568,705.2099 614.17702,709.12055 613.32762,712.8731 C612.47822,716.62565 609.9204,720.24329 606.1967,721.21134 C601.67414,722.38708 597.24057,719.49807 592.97042,717.60027 C582.29753,712.85686 569.89092,714.06927 558.76251,710.52396 C556.6973,709.86603 554.48545,708.85996 553.64295,706.86296 C553.262299,705.738253 553.126498,704.545163 553.24465,703.36368 C553.43522,696.85485 552.06242,687.96693 554.02203,681.74633 C555.78436,676.152 562.60755,677.72348 567.6123,677.72348 Z" id="Shape" fill="#2F2E41"></path>
            <path d="M640.80315,580.42684 C647.713919,578.693912 654.877903,578.20445 661.96015,578.98134 C667.61623,579.60446 673.44373,581.17834 677.57332,585.09318 C682.5996,589.85812 684.21456,597.22718 684.34932,604.15181 C684.570269,617.943889 679.995861,631.384848 671.40746,642.17881 C669.310231,644.908918 666.816229,647.309789 664.00832,649.30165 C660.97929,651.196461 657.750951,652.752203 654.38159,653.94079 L579.65378,683.41562 C559.99453,691.16981 540.26591,698.94645 519.76027,704.0584 C518.627663,704.605166 517.322341,704.671758 516.139972,704.243091 C514.957603,703.814424 513.998241,702.926773 513.47919,701.7812 C506.931847,692.428924 501.439033,682.381146 497.10094,671.82114 C496.684044,671.311825 496.541599,670.631258 496.719245,669.997503 C496.896892,669.363748 497.372325,668.856377 497.99321,668.63796 L550.84879,638.26877 C554.63479,636.09342 558.46311,633.88677 561.60679,630.85633 C563.8911,628.64255 565.761558,626.038491 567.13002,623.16687 C568.22563,620.87848 568.32784,615.47822 569.72729,613.78675 C571.09747,612.13066 575.78465,611.9985 577.94943,611.34713 C581.002456,610.411957 583.992298,609.281753 586.90051,607.96349 C598.7239,602.67409 609.25245,594.98886 620.58677,588.79549 C626.943851,585.160816 633.73706,582.34874 640.80315,580.42684 L640.80315,580.42684 Z" id="Shape" fill="#2F2E41"></path>
            <path d="M610.83876,603.10644 C601.758,609.92673 590,616.19614 581,623.19614 C577.9284,625.58514 526.724,654.3728 526,658.19614 C534.39649,659.6109 587.883,622.19306 595.53554,618.45936 C603.18808,614.72566 609.97187,609.46036 616.69398,604.23389 C618.40706,602.90197 625.66705,598.898 620.74936,597.40989 C617.97906,596.57162 612.884,601.74296 610.83876,603.10644 Z" id="Shape" fill="#000000" opacity="0.1"></path>
            <polygon id="Shape" fill="#2F2E41" points="561.025 286.538 520.595 265.361 464.764 274.024 453.212 325.043 481.967 323.937 490 305.193 490 323.628 503.268 323.117 510.969 293.277 515.782 325.043 562.95 324.08"></polygon>
            <rect id="Rectangle-path" fill="#3F3D56" x="465" y="391.19614" width="87" height="105" rx="5"></rect>
            <path d="M423.69854,573.81871 C425.69608,576.80079 428.0366,579.71771 431.24515,581.32644 C435.391168,583.220032 440.179515,583.091696 444.21815,580.97874 C448.198433,578.844564 451.456474,575.578022 453.58027,571.59219 C457.97418,563.83319 458.88416,554.54873 458.33586,545.64884 C457.78756,536.74895 455.88725,527.98538 455.04619,519.10838 C454.43479,512.65538 454.38507,506.16395 454.33583,499.68226 C454.184038,498.319241 454.469959,496.94328 455.1522,495.75357 C456.12542,494.42457 457.90733,494.05839 459.48636,493.58924 C468.35425,490.95445 474.24051,482.64251 478.46054,474.41007 C481.27837,468.91307 483.72871,462.90407 483.18533,456.7508 C482.64195,450.59753 478.21904,444.3987 472.07382,443.77099 C467.00753,443.25348 462.32959,446.47134 458.67505,450.01809 C449.455986,459.021242 443.531102,470.862159 441.85238,483.6383 C441.05016,489.89477 441.27994,496.3215 439.57823,502.3953 C435.94475,515.36404 424.5763,523.31525 418.91093,534.9848 C412.66827,547.84338 416.11372,562.44148 423.69854,573.81871 Z" id="Shape" fill="#FFB8B8"></path>
            <path d="M590.9919,524.27276 C588.38007,530.349171 583.423254,535.112044 577.24749,537.4794 C573.447892,539.005606 569.256648,539.262301 565.2992,538.21118 C561.321226,537.10763 558.084949,534.212943 556.54633,530.38218 C555.940848,528.478547 555.608888,526.498547 555.5604,524.50153 C554.99186,515.75594 555.21155,506.74388 558.38826,498.57584 C559.61351,495.42542 561.26555,492.43764 562.23252,489.1986 C563.182822,485.457751 563.668992,481.614141 563.68006,477.75449 L564.72435,453.89217 C564.897046,452.159804 564.777223,450.41073 564.36989,448.7181 C563.32826,445.26536 560.10132,443.02155 557.14046,440.96249 C549.98981,435.98974 542.92351,430.18707 539.45855,422.19619 C538.26815,419.790295 537.841826,417.077944 538.23675,414.42287 C539.21375,409.68448 543.99566,406.61687 548.72206,405.58344 C554.971067,404.217055 561.507041,405.462301 566.815864,409.030705 C572.124686,412.599108 575.745699,418.181031 576.84006,424.48337 C577.30767,427.17628 577.30124,429.927 577.57494,432.64647 C578.15551,438.41512 579.98684,443.97578 581.1325,449.65927 C583.9545,463.65888 582.49221,478.13044 585.28283,492.12767 C587.61613,503.83092 596.41438,511.4674 590.9919,524.27276 Z" id="Shape" fill="#FFB8B8"></path>
        </g>
        <g id="Group-5" transform="translate(146.017804, 654.617052) rotate(7.000000) translate(-146.017804, -654.617052) translate(62.517804, 579.617052)">
            <path d="M151.868973,33.4112309 L151.868973,117.03368 C151.868973,123.32912 146.743645,128.436741 140.42638,128.436741 L26.0004545,128.436741 C19.6831899,128.436741 14.5578619,123.32912 14.5578619,117.03368 L14.5578619,33.4112309 C14.5578619,27.1157908 19.6831899,22.0081697 26.0004545,22.0081697 L140.42638,22.0081697 C146.743645,22.0081697 151.868973,27.1157908 151.868973,33.4112309 Z" id="Path" fill="#FFFFFF" transform="translate(83.213417, 75.222455) rotate(-21.000000) translate(-83.213417, -75.222455) "></path>
            <path d="M126.623753,69.3546301 C126.623753,69.3546301 128.435497,78.1920026 128.840755,80.045 L120.878618,80.045 C121.665296,77.9306824 124.692816,69.7109758 124.692816,69.7109758 C124.645138,69.7822449 125.479494,67.5491454 125.956269,66.1712755 L126.623753,69.3546301 Z M151.868973,33.4112309 L151.868973,117.03368 C151.868973,123.32912 146.743645,128.436741 140.42638,128.436741 L26.0004545,128.436741 C19.6831899,128.436741 14.5578619,123.32912 14.5578619,117.03368 L14.5578619,33.4112309 C14.5578619,27.1157908 19.6831899,22.0081697 26.0004545,22.0081697 L140.42638,22.0081697 C146.743645,22.0081697 151.868973,27.1157908 151.868973,33.4112309 Z M50.9119321,93.0872513 L65.9780124,56.2173533 L55.8465502,56.2173533 L46.4779275,81.3991135 L45.4528619,76.2914924 L42.1154391,59.3294388 C41.5671482,56.9775574 39.874598,56.3123788 37.7767894,56.2173533 L22.3531281,56.2173533 L22.186257,56.953801 C25.952777,57.9040561 29.3140386,59.281926 32.246203,61.0161416 L40.7804699,93.0872513 L50.9119321,93.0872513 Z M73.4156976,93.1347641 L79.4230587,56.2173533 L69.8398874,56.2173533 L63.856365,93.1347641 L73.4156976,93.1347641 L73.4156976,93.1347641 Z M106.766087,81.0665243 C106.813765,76.8616454 104.239181,73.6545345 98.7324337,71.0175766 C95.3711721,69.3308737 93.3210409,68.1905676 93.3210409,66.4563521 C93.3687184,64.8884311 95.0612686,63.2729975 98.8277886,63.2729975 C101.950663,63.2017283 104.239181,63.938176 105.95557,64.6746237 L106.813765,65.0784822 L108.124895,57.0963393 C106.241635,56.3598916 103.237955,55.5284184 99.5429507,55.5284184 C90.078973,55.5284184 83.4279661,60.5647704 83.3802886,67.7391964 C83.3087724,73.0368686 88.1480355,75.9826595 91.7715232,77.7643878 C95.466527,79.5698725 96.72998,80.7576913 96.72998,82.3493686 C96.6823025,84.8200319 93.7262994,85.960338 90.9848449,85.960338 C87.1706474,85.960338 85.1205162,85.3664286 81.997642,83.9885587 L80.7341891,83.3946493 L79.3992199,91.685625 C81.640061,92.7071493 85.7880008,93.6098916 90.078973,93.6574044 C100.138919,93.6811607 106.694571,88.7160778 106.766087,81.0665243 Z M140.42638,93.1347641 L132.70263,56.2173533 L125.288784,56.2173533 C123.000265,56.2173533 121.260038,56.8825319 120.28265,59.281926 L106.050925,93.1347641 L116.110871,93.1347641 C116.110871,93.1347641 117.755744,88.5735396 118.113325,87.5995281 L130.414112,87.5995281 C130.700177,88.9061288 131.558371,93.1347641 131.558371,93.1347641 L140.42638,93.1347641 Z" id="Shape" fill="#FF6666" fill-rule="nonzero" transform="translate(83.213417, 75.222455) rotate(-21.000000) translate(-83.213417, -75.222455) "></path>
        </g>
        <g id="apple" transform="translate(189.151799, 381.151799) rotate(-13.000000) translate(-189.151799, -381.151799) translate(118.151799, 310.151799)">
            <circle id="Oval-4" fill="#2F2E41" cx="70.7981664" cy="70.7981664" r="70.7981664"></circle>
            <path d="M91.6956358,68.1904669 C91.6597364,61.6029219 94.6393889,56.6308511 100.670493,52.9691094 C97.2959466,48.1406364 92.1982278,45.4840787 85.467085,44.963537 C79.0949365,44.460945 72.1304475,48.6791278 69.5815881,48.6791278 C66.889131,48.6791278 60.7144293,45.1430341 55.8680066,45.1430341 C45.8520661,45.3045815 35.2078857,53.1306569 35.2078857,69.0520532 C35.2078857,73.7548783 36.069472,78.6132676 37.7926445,83.627221 C40.0902079,90.2147661 48.3829758,106.369509 57.034738,106.100263 C61.5580659,105.992565 64.753115,102.887264 70.6406212,102.887264 C76.3486303,102.887264 79.3103331,106.100263 84.3542027,106.100263 C93.0777638,105.974615 100.580744,91.2917489 102.770609,84.6862542 C91.0673958,79.1756919 91.6956358,68.5315115 91.6956358,68.1904669 Z M81.5360976,38.7170365 C86.4363696,32.9013291 85.9876267,27.6061635 85.844029,25.7034938 C81.5181479,25.9547898 76.5101777,28.6472469 73.6561732,31.967944 C70.5149732,35.5219874 68.6661527,39.9196673 69.0610464,44.8737884 C73.7459217,45.2327827 78.0179537,42.827521 81.5360976,38.7170365 Z" id="Shape" fill="#FFFFFF" fill-rule="nonzero"></path>
        </g>
        <g id="Group-4" transform="translate(846.232719, 573.232719) rotate(9.000000) translate(-846.232719, -573.232719) translate(775.232719, 502.232719)">
            <rect id="Rectangle" fill="#38A1F3" x="0" y="0" width="142" height="142" rx="50"></rect>
            <path d="M105.954057,54.8238011 C106.007566,55.572132 106.007566,56.3206274 106.007566,57.0689584 C106.007566,79.8940388 88.6241719,106.193889 56.8523861,106.193889 C47.0640912,106.193889 37.9712441,103.360663 30.3224717,98.4430365 C31.7132025,98.6032991 33.05026,98.6567748 34.4944994,98.6567748 C42.5710117,98.6567748 50.0059141,95.9306651 55.9430685,91.2800879 C48.3478047,91.1196608 41.9827459,86.1483938 39.7897147,79.306135 C40.8595583,79.4663976 41.9292372,79.573349 43.0525894,79.573349 C44.6036815,79.573349 46.1549382,79.3594461 47.599013,78.9854452 C39.6828621,77.3816674 33.745543,70.4326217 33.745543,62.0402253 L33.745543,61.826487 C36.0454268,63.1094105 38.7200358,63.9112172 41.5546767,64.0180041 C36.9012358,60.9175644 33.8525603,55.6256077 33.8525603,49.6386312 C33.8525603,46.4314047 34.7082047,43.4913922 36.2059528,40.9255451 C44.7105342,51.4026717 57.4941606,58.2447659 71.8287144,58.9932614 C71.5613358,57.7103379 71.4008099,56.3741032 71.4008099,55.0377039 C71.4008099,45.5226466 79.1030909,37.7717943 88.6773513,37.7717943 C93.6516794,37.7717943 98.1445943,39.8565244 101.300452,43.2241781 C105.204936,42.4758472 108.949059,41.0324965 112.265443,39.0547178 C110.981565,43.0639155 108.253776,46.4315692 104.670179,48.5696106 C108.146924,48.1956096 111.516651,47.2332113 114.618835,45.8969766 C112.265772,49.3179415 109.323785,52.3647409 105.954057,54.8238011 Z" id="twitter" fill="#FFFFFF" fill-rule="nonzero"></path>
        </g>
        <g id="Group-6" transform="translate(309.000000, 31.000000)">
            <ellipse id="Oval-3" fill="#FFFFFF" cx="70.1327204" cy="67.9614854" rx="64.5221028" ry="64.5914944"></ellipse>
            <path d="M138.021194,68.3750442 C138.021194,30.6033464 107.133386,0 69.0105969,0 C30.8878075,0 0,30.6033464 0,68.3750442 C0,102.501911 25.2361735,130.789328 58.2276911,135.922971 L58.2276911,88.1403947 L40.6967734,88.1403947 L40.6967734,68.3750442 L58.2276911,68.3750442 L58.2276911,53.310478 C58.2276911,36.1753611 68.5236269,26.7103802 84.2931049,26.7103802 C91.8453129,26.7103802 99.742574,28.0447963 99.742574,28.0447963 L99.742574,44.8628516 L91.0383342,44.8628516 C82.4676633,44.8628516 79.7935026,50.1343469 79.7935026,55.5409381 L79.7935026,68.3750442 L98.9328125,68.3750442 L95.8718586,88.1403947 L79.7935026,88.1403947 L79.7935026,135.922971 C112.78502,130.789328 138.021194,102.501911 138.021194,68.3750442 Z" id="facebook" fill="#4990E2" fill-rule="nonzero"></path>
        </g>
        <g id="bitcoin" transform="translate(623.000000, 124.000000)">
            <path d="M142,71 C142,110.212327 110.212327,142 71,142 C31.7876734,142 0,110.212327 0,71 C0,31.7876734 31.7876734,0 71,0 C110.212327,0 142,31.7876734 142,71 Z" id="Path" fill="#FFFFFF"></path>
            <g fill-rule="nonzero">
                <use fill="black" fill-opacity="1" filter="url(#filter-2)" xlink:href="#path-1"></use>
                <use fill="#FF6666" fill-rule="evenodd" xlink:href="#path-1"></use>
            </g>
        </g>
    </g>
</svg>