<?xml version="1.0" encoding="UTF-8"?>
<svg width="1005px" height="1192px" viewBox="0 0 1005 1192" version="1.1" xmlns="http://www.w3.org/2000/svg" xmlns:xlink="http://www.w3.org/1999/xlink">
    <!-- Generator: Sketch 44.1 (41455) - http://www.bohemiancoding.com/sketch -->
    <title>undraw_vault_9cmw</title>
    <desc>Created with Sketch.</desc>
    <defs>
        <rect id="path-1" x="112.66" y="532.49" width="452.98" height="457.65"></rect>
        <filter x="-5.5%" y="-5.5%" width="111.0%" height="110.9%" filterUnits="objectBoundingBox" id="filter-2">
            <feGaussianBlur stdDeviation="25" in="SourceAlpha" result="shadowBlurInner1"></feGaussianBlur>
            <feOffset dx="0" dy="0" in="shadowBlurInner1" result="shadowOffsetInner1"></feOffset>
            <feComposite in="shadowOffsetInner1" in2="SourceAlpha" operator="arithmetic" k2="-1" k3="1" result="shadowInnerInner1"></feComposite>
            <feColorMatrix values="0 0 0 0 0   0 0 0 0 0   0 0 0 0 0  0 0 0 0.1 0" type="matrix" in="shadowInnerInner1"></feColorMatrix>
        </filter>
        <path d="M584,939 C584,978.212327 552.212327,1010 513,1010 C473.787673,1010 442,978.212327 442,939 C442,899.787673 473.787673,868 513,868 C552.212327,868 584,899.787673 584,939 Z M543.44669,928.885363 C544.860105,919.438069 537.666202,914.359278 527.829552,910.971319 L531.020544,898.173569 L523.229726,896.232234 L520.12319,908.692734 C518.075069,908.182278 515.971407,907.701024 513.881202,907.224065 L517.010069,894.681685 L509.223544,892.740351 L506.030548,905.53352 C504.335137,905.147315 502.670931,904.76569 501.055681,904.36431 L501.064556,904.32423 L490.320081,901.64169 L488.247625,909.961859 C488.247625,909.961859 494.028113,911.286524 493.906153,911.368403 C497.061645,912.155988 497.631935,914.243903 497.536315,915.898948 L493.901573,930.478282 C494.119153,930.533823 494.400863,930.613698 494.711488,930.737948 C494.451823,930.673532 494.174407,930.602532 493.888117,930.533823 L488.793294,950.957202 C488.407089,951.915702 487.428548,953.353452 485.222968,952.807782 C485.300552,952.920867 479.560145,951.394367 479.560145,951.394367 L475.692363,960.311452 L485.831048,962.838536 C487.717129,963.311202 489.565706,963.805911 491.385081,964.271706 L488.160879,977.21575 L495.942823,979.157085 L499.135819,966.35046 C501.199557,966.909761 503.26927,967.446778 505.344597,967.961415 L502.16248,980.707919 L509.953298,982.649254 L513.1775,969.729544 C526.462516,972.24346 536.452617,971.229419 540.657363,959.21496 C544.045895,949.54121 540.488738,943.961125 533.49896,940.322375 C538.589202,939.149157 542.423774,935.801278 543.44669,928.885363 Z M525.646016,953.843867 C523.238315,963.517617 506.948968,958.287952 501.66777,956.976742 L505.946093,939.828238 C511.227004,941.146032 528.162222,943.755282 525.646016,953.843867 Z M528.055722,928.745653 C525.859016,937.545073 512.300879,933.074363 507.902887,931.978444 L511.781548,916.425149 C516.179827,917.521069 530.343468,919.566613 528.055722,928.745653 Z" id="path-3"></path>
        <filter x="-4.9%" y="-3.5%" width="109.9%" height="109.9%" filterUnits="objectBoundingBox" id="filter-4">
            <feOffset dx="0" dy="2" in="SourceAlpha" result="shadowOffsetOuter1"></feOffset>
            <feGaussianBlur stdDeviation="2" in="shadowOffsetOuter1" result="shadowBlurOuter1"></feGaussianBlur>
            <feColorMatrix values="0 0 0 0 0   0 0 0 0 0   0 0 0 0 0  0 0 0 0.0938915308 0" type="matrix" in="shadowBlurOuter1"></feColorMatrix>
        </filter>
        <filter x="-1.9%" y="-0.9%" width="103.9%" height="102.6%" filterUnits="objectBoundingBox" id="filter-5">
            <feOffset dx="0" dy="2" in="SourceAlpha" result="shadowOffsetOuter1"></feOffset>
            <feGaussianBlur stdDeviation="2" in="shadowOffsetOuter1" result="shadowBlurOuter1"></feGaussianBlur>
            <feColorMatrix values="0 0 0 0 0   0 0 0 0 0   0 0 0 0 0  0 0 0 0.1 0" type="matrix" in="shadowBlurOuter1" result="shadowMatrixOuter1"></feColorMatrix>
            <feMerge>
                <feMergeNode in="shadowMatrixOuter1"></feMergeNode>
                <feMergeNode in="SourceGraphic"></feMergeNode>
            </feMerge>
        </filter>
        <linearGradient x1="33915%" y1="42321%" x2="33915%" y2="25509%" id="linearGradient-6">
            <stop stop-color="#808080" stop-opacity="0.25" offset="0%"></stop>
            <stop stop-color="#808080" stop-opacity="0.12" offset="54%"></stop>
            <stop stop-color="#808080" stop-opacity="0.1" offset="100%"></stop>
        </linearGradient>
        <linearGradient x1="33915%" y1="38993%" x2="33915%" y2="28836%" id="linearGradient-7">
            <stop stop-color="#808080" stop-opacity="0.25" offset="0%"></stop>
            <stop stop-color="#808080" stop-opacity="0.12" offset="54%"></stop>
            <stop stop-color="#808080" stop-opacity="0.1" offset="100%"></stop>
        </linearGradient>
        <linearGradient x1="37760%" y1="38054%" x2="37760%" y2="28364%" id="linearGradient-8">
            <stop stop-color="#808080" stop-opacity="0.25" offset="0%"></stop>
            <stop stop-color="#808080" stop-opacity="0.12" offset="54%"></stop>
            <stop stop-color="#808080" stop-opacity="0.1" offset="100%"></stop>
        </linearGradient>
        <linearGradient x1="37760%" y1="56383%" x2="37760%" y2="46693%" id="linearGradient-9">
            <stop stop-color="#808080" stop-opacity="0.25" offset="0%"></stop>
            <stop stop-color="#808080" stop-opacity="0.12" offset="54%"></stop>
            <stop stop-color="#808080" stop-opacity="0.1" offset="100%"></stop>
        </linearGradient>
    </defs>
    <g id="Page-1" stroke="none" stroke-width="1" fill="none" fill-rule="evenodd">
        <ellipse id="Oval-2" fill-opacity="0.03" fill="#000000" cx="502.5" cy="1105" rx="502.5" ry="87"></ellipse>
        <g id="undraw_vault_9cmw" transform="translate(169.000000, 0.000000)">
            <g id="Path">
                <use fill="#EEEEEE" fill-rule="evenodd" xlink:href="#path-1"></use>
                <use fill="black" fill-opacity="1" filter="url(#filter-2)" xlink:href="#path-1"></use>
            </g>
            <g id="bitcoin" fill-rule="nonzero">
                <use fill="black" fill-opacity="1" filter="url(#filter-4)" xlink:href="#path-3"></use>
                <use fill="#FF6666" fill-rule="evenodd" xlink:href="#path-3"></use>
            </g>
            <path d="M64.67,424.5 L614.79,424.5 L614.79,424.5 C647.927085,424.5 674.79,451.362915 674.79,484.5 L674.79,1034.62 C674.79,1067.75708 647.927085,1094.62 614.79,1094.62 L64.67,1094.62 L64.67,1094.62 C31.532915,1094.62 4.67,1067.75708 4.67,1034.62 L4.67,484.5 L4.67,484.5 C4.67,451.362915 31.532915,424.5 64.67,424.5 L64.67,424.5 Z M117.66,532.49 C114.898576,532.49 112.66,534.728576 112.66,537.49 L112.66,985.14 C112.66,987.901424 114.898576,990.14 117.66,990.14 L560.64,990.14 C563.401424,990.14 565.64,987.901424 565.64,985.14 L565.64,537.49 C565.64,534.728576 563.401424,532.49 560.64,532.49 L117.66,532.49 Z" id="Combined-Shape" stroke="#EEEEEE" stroke-width="5" fill="#FAFAFA" fill-rule="nonzero"></path>
            <g id="Group" transform="translate(167.000000, 0.000000)">
                <path d="M145.885428,129.966587 C145.885428,129.966587 194.475967,108.745494 217.298803,131.16238 C240.12164,153.579266 156.192502,146.200285 145.885428,129.966587 Z" id="Shape" fill="#3F3D56" fill-rule="nonzero"></path>
                <path d="M229.788497,29.3245036 C213.459345,1.6705248 181.153445,0.381716872 181.153445,0.381716872 C181.153445,0.381716872 149.673278,-3.65309591 129.478818,38.4642556 C110.655985,77.7210889 84.6782017,115.624361 125.296582,124.814148 L132.633453,101.926585 L137.177132,126.518103 C142.96041,126.935006 148.762119,127.03438 154.556233,126.815779 C198.055257,125.40825 239.481495,127.227619 238.147635,111.582859 C236.37449,90.7852196 245.500402,55.9331624 229.788497,29.3245036 L229.788497,29.3245036 Z" id="Shape" fill="#2F2E41" fill-rule="nonzero"></path>
                <path d="M252.637385,530.644033 C252.637385,530.644033 232.02322,569.014619 218.771245,569.014619 C205.51927,569.014619 206.991712,594.103091 209.936595,600.006261 C212.881478,605.909431 220.243687,619.191545 208.464153,638.376847 C204.349567,645.07823 205.085613,652.67999 207.785655,659.735422 C215.350832,679.503783 244.77915,673.514655 243.840337,652.362928 C243.829972,652.129749 243.817438,651.895093 243.802735,651.658961 C242.330293,628.0463 254.109827,591.151506 265.88936,582.296807 C277.668893,573.442107 287.975967,549.82939 287.975967,549.82939 L252.637385,530.644033 Z" id="Shape" fill="#FFB8B8" fill-rule="nonzero"></path>
                <path d="M111.283058,521.789297 C111.283058,521.789297 131.897223,560.159883 145.149198,560.159883 C158.401173,560.159883 156.928732,585.248336 153.983848,591.151506 C151.038965,597.054676 143.676848,610.33679 155.45629,629.522092 C159.570877,636.223475 158.83483,643.825235 156.134788,650.880667 C148.569612,670.649047 119.141293,664.6599 120.080107,643.508173 C120.090459,643.274994 120.102993,643.040338 120.117708,642.804206 C121.59015,619.191545 109.810708,582.296752 98.0310833,573.442052 C86.2514583,564.587352 75.9444767,540.974636 75.9444767,540.974636 L111.283058,521.789297 Z" id="Shape" fill="#FFB8B8" fill-rule="nonzero"></path>
                <path d="M127.479898,332.887951 L118.645267,352.073235 C118.645267,352.073235 -10.929545,394.871199 0.849933333,445.048124 C12.6294117,495.22505 70.0546,573.441978 78.889305,570.490412 C87.72401,567.538845 134.842052,558.68409 136.314493,533.595618 C137.786935,508.507146 102.448353,464.233463 102.448353,464.233463 L151.03891,419.959707 L221.74603,418.483915 L282.0862,464.233408 C282.0862,464.233408 218.771245,520.313504 246.747618,542.450373 C274.723992,564.587242 315.952285,579.345167 321.842107,570.490412 C327.731928,561.635657 393.991712,430.2902 383.684638,418.48386 C373.377565,406.67752 268.834243,362.403782 268.834243,362.403782 L240.857852,322.557477 L131.897223,316.654307 L127.479898,332.887951 Z" id="Shape" fill="#2F2E41" fill-rule="nonzero"></path>
                <path d="M153.983848,89.3823025 C153.983848,89.3823025 161.346057,138.083436 146.62164,143.986606 C131.897223,149.889776 176.070473,174.97823 176.070473,174.97823 L201.102,174.97823 L217.29884,141.035021 C217.29884,141.035021 202.574423,114.470775 211.409073,89.3823025 C220.243723,64.2938304 153.983848,89.3823025 153.983848,89.3823025 Z" id="Shape" fill="#FFB8B8" fill-rule="nonzero"></path>
                <path d="M153.983848,89.3823025 C153.983848,89.3823025 161.346057,138.083436 146.62164,143.986606 C131.897223,149.889776 176.070473,174.97823 176.070473,174.97823 L201.102,174.97823 L217.29884,141.035021 C217.29884,141.035021 202.574423,114.470775 211.409073,89.3823025 C220.243723,64.2938304 153.983848,89.3823025 153.983848,89.3823025 Z" id="Shape" fill="#000000" fill-rule="nonzero" opacity="0.1"></path>
                <path d="M143.676757,130.704474 C143.676757,130.704474 159.873615,148.413983 162.818498,151.365568 C165.763382,154.317153 179.015338,170.550852 206.991712,146.938191 C234.968085,123.32553 237.912987,151.365568 237.912987,151.365568 L237.912987,328.460666 C237.912987,328.460666 214.35392,318.13021 195.212197,328.460666 C176.070473,338.791121 136.31453,325.509081 136.31453,325.509081 L128.952322,142.510905 L143.676757,130.704474 Z" id="Shape" fill="#FFFFFF" fill-rule="nonzero"></path>
                <path d="M154.492415,130.704474 C154.492415,130.704474 140.731873,124.801304 128.952248,130.704474 C117.172623,136.607643 75.944385,166.123475 78.8892683,179.405607 C81.8341517,192.687739 120.117708,285.66261 93.6137583,329.936366 C67.1098083,374.210122 62.6925017,386.016444 62.6925017,386.016444 L127.479898,352.073235 C127.479898,352.073235 177.542897,321.081611 173.125572,301.896328 C168.708247,282.711044 154.492415,130.704474 154.492415,130.704474 L154.492415,130.704474 Z" id="Shape" fill="#FF6666" fill-rule="nonzero"></path>
                <path d="M212.898858,130.704474 C212.898858,130.704474 243.802735,133.656059 245.275177,136.607643 C246.747618,139.559228 291.65708,152.103455 288.712197,165.385588 C285.767313,178.66772 245.275177,297.46895 262.944477,319.605819 C280.613777,341.742688 310.062592,372.73433 299.7555,375.685915 C289.448408,378.6375 271.779127,371.258537 254.109827,375.685915 C236.440527,380.113292 195.21216,343.21848 199.629522,303.37212 C204.046883,263.52576 199.664245,141.035021 212.898858,130.704474 Z" id="Shape" fill="#FF6666" fill-rule="nonzero"></path>
                <g id="Group-6" transform="translate(118.461538, 418.023529)">
                    <ellipse id="Oval-3" fill="#FFFFFF" cx="65.5917529" cy="63.4640342" rx="60.3444127" ry="60.3170573"></ellipse>
                    <path d="M129.08457,63.8502251 C129.08457,28.5781249 100.196692,0 64.5422849,0 C28.8878775,0 0,28.5781249 0,63.8502251 C0,95.7186963 23.6021767,122.134152 54.4575528,126.928068 L54.4575528,82.3075744 L38.0617305,82.3075744 L38.0617305,63.8502251 L54.4575528,63.8502251 L54.4575528,49.7825787 C54.4575528,33.7814034 64.0868453,24.9427815 78.8352779,24.9427815 C85.8984941,24.9427815 93.2844217,26.1888907 93.2844217,26.1888907 L93.2844217,41.8939864 L85.1437658,41.8939864 C77.1280304,41.8939864 74.6270169,46.8166328 74.6270169,51.8654348 L74.6270169,63.8502251 L92.5270909,63.8502251 L89.6643282,82.3075744 L74.6270169,82.3075744 L74.6270169,126.928068 C105.482393,122.134152 129.08457,95.7186963 129.08457,63.8502251 Z" id="facebook" fill="#4990E2" fill-rule="nonzero"></path>
                </g>
                <path d="M139.259432,412.580708 L139.259432,427.338615 C139.259432,427.338615 131.897223,461.281823 155.45629,459.806031 C179.015357,458.330238 164.29094,418.48386 164.29094,418.48386 L162.818498,405.201746 L139.259432,412.580708 Z" id="Shape" fill="#FFB8B8" fill-rule="nonzero"></path>
                <path d="M205.51927,414.056464 C205.51927,414.056464 189.32243,447.999673 205.51927,450.951258 C221.71611,453.902843 233.495662,431.765864 233.495662,425.862786 C233.495662,419.959707 205.51927,414.056464 205.51927,414.056464 Z" id="Shape" fill="#FFB8B8" fill-rule="nonzero"></path>
                <ellipse id="Oval" fill="#FFB8B8" fill-rule="nonzero" cx="226.869665" cy="69.4591133" rx="2.94488333" ry="5.90316991"></ellipse>
                <ellipse id="Oval" fill="#FFB8B8" fill-rule="nonzero" cx="139.995662" cy="69.4591133" rx="2.94488333" ry="5.90316991"></ellipse>
                <path d="M252.637385,149.889776 C252.637385,149.889776 289.448408,149.889776 287.975967,164.647682 C286.503525,179.405589 237.912987,433.241858 237.912987,433.241858 C237.912987,433.241858 217.298803,414.056574 199.629522,418.483933 L252.637385,149.889776 Z" id="Shape" fill="#FF6666" fill-rule="nonzero"></path>
                <path d="M109.810617,154.317153 C109.810617,154.317153 72.9995933,161.696097 72.9995933,183.833003 C72.9995933,205.969908 126.007475,418.483878 133.369665,418.483878 C140.731855,418.483878 168.708247,414.056519 168.708247,406.677557 C168.708247,399.298594 109.810617,154.317153 109.810617,154.317153 L109.810617,154.317153 Z" id="Shape" fill="#FF6666" fill-rule="nonzero"></path>
                <path d="M117.909,197.853004 L151.038928,327.709512 C151.038928,327.709512 135.578337,214.086703 117.909,197.853004 Z" id="Shape" fill="#000000" fill-rule="nonzero" opacity="0.2"></path>
                <path d="M246.77268,179.60663 L213.266002,349.387004 C213.266002,349.387004 223.974887,189.400295 246.77268,179.60663 L246.77268,179.60663 Z" id="Shape" fill="#000000" fill-rule="nonzero" opacity="0.2"></path>
                <ellipse id="Oval" fill="#FFB8B8" fill-rule="nonzero" cx="183.432663" cy="70.1970187" rx="42.70079" ry="42.7979635"></ellipse>
                <polygon id="Shape" fill="#2F2E41" fill-rule="nonzero" points="222.5685 26.6588713 190.652 9.90265933 146.576833 16.7565546 137.457833 57.1247111 160.158167 56.2500586 166.499667 41.4195523 166.499667 56.0056703 176.9735 55.6014191 183.052833 31.9894745 186.853333 57.1247111 224.088333 56.3639839"></polygon>
            </g>
            <g id="Group-4" transform="translate(339.232719, 1071.232719) rotate(9.000000) translate(-339.232719, -1071.232719) translate(268.232719, 1000.232719)">
                <rect id="Rectangle" fill="#38A1F3" x="0" y="0" width="142" height="142" rx="50"></rect>
                <path d="M105.954057,54.8238011 C106.007566,55.572132 106.007566,56.3206274 106.007566,57.0689584 C106.007566,79.8940388 88.6241719,106.193889 56.8523861,106.193889 C47.0640912,106.193889 37.9712441,103.360663 30.3224717,98.4430365 C31.7132025,98.6032991 33.05026,98.6567748 34.4944994,98.6567748 C42.5710117,98.6567748 50.0059141,95.9306651 55.9430685,91.2800879 C48.3478047,91.1196608 41.9827459,86.1483938 39.7897147,79.306135 C40.8595583,79.4663976 41.9292372,79.573349 43.0525894,79.573349 C44.6036815,79.573349 46.1549382,79.3594461 47.599013,78.9854452 C39.6828621,77.3816674 33.745543,70.4326217 33.745543,62.0402253 L33.745543,61.826487 C36.0454268,63.1094105 38.7200358,63.9112172 41.5546767,64.0180041 C36.9012358,60.9175644 33.8525603,55.6256077 33.8525603,49.6386312 C33.8525603,46.4314047 34.7082047,43.4913922 36.2059528,40.9255451 C44.7105342,51.4026717 57.4941606,58.2447659 71.8287144,58.9932614 C71.5613358,57.7103379 71.4008099,56.3741032 71.4008099,55.0377039 C71.4008099,45.5226466 79.1030909,37.7717943 88.6773513,37.7717943 C93.6516794,37.7717943 98.1445943,39.8565244 101.300452,43.2241781 C105.204936,42.4758472 108.949059,41.0324965 112.265443,39.0547178 C110.981565,43.0639155 108.253776,46.4315692 104.670179,48.5696106 C108.146924,48.1956096 111.516651,47.2332113 114.618835,45.8969766 C112.265772,49.3179415 109.323785,52.3647409 105.954057,54.8238011 Z" id="twitter" fill="#FFFFFF" fill-rule="nonzero"></path>
            </g>
            <g id="Group-2" filter="url(#filter-5)" transform="translate(98.000000, 494.000000)" fill-rule="nonzero">
                <path d="M21.7093412,43.1446532 L354.18654,1.08021476 L354.18654,1.08021476 C356.926125,0.733607251 359.427978,2.67349856 359.774586,5.41308327 C359.800922,5.6212425 359.814129,5.83085306 359.814129,6.04067167 L359.814129,526.115556 L359.814129,526.115556 C359.814129,528.87698 357.575553,531.115556 354.814129,531.115556 C354.604971,531.115556 354.396019,531.102432 354.188504,531.076261 L21.7093412,489.145298 L21.7093412,43.1446532 Z" id="Rectangle-path" fill="#FFFFFF"></path>
                <g id="Group-7" transform="translate(127.000000, 173.000000)">
                    <path d="M63.7655257,185.232443 C98.9619149,186.901465 127.494226,145.654077 127.494226,93.1038219 C127.494226,40.5535672 98.9619149,-0.682507126 63.7655257,1.000472 C28.5691364,2.68345112 0.0368254419,43.9308396 0.0368254419,93.1290928 C0.0368254419,142.327346 28.5691364,183.56342 63.7655257,185.232443 Z" id="Oval" fill="url(#linearGradient-6)"></path>
                    <path d="M63.7655257,181.397016 C97.4964455,182.929668 124.840759,143.399694 124.840759,93.104348 C124.840759,42.8090023 97.4964455,3.28987137 63.7655257,4.83589846 C30.0346059,6.38192556 2.69029262,45.9118996 2.69029262,93.1285667 C2.69029262,140.345234 30.0346059,179.864365 63.7655257,181.397016 Z" id="Oval" fill="#FAFAFA"></path>
                    <path d="M63.7655257,148.763016 C85.0273939,149.370419 102.263544,124.453189 102.263544,93.1088244 C102.263544,61.7644597 85.0273939,36.8540641 63.7655257,37.4698985 C42.5036574,38.0857329 25.2675076,63.0029633 25.2675076,93.1240903 C25.2675076,123.245217 42.5036574,148.155613 63.7655257,148.763016 Z" id="Oval" fill="url(#linearGradient-7)"></path>
                    <path d="M63.7655257,145.574133 C83.8089608,146.113688 100.057375,122.624365 100.057375,93.1092618 C100.057375,63.594159 83.8089608,40.1112792 63.7655257,40.6587817 C43.7220906,41.2062841 27.473676,64.6956071 27.473676,93.1236529 C27.473676,121.551699 43.7220906,145.034579 63.7655257,145.574133 Z" id="Oval" fill="#E75C5C"></path>
                    <path d="M34.1149253,100.04977 C34.1005855,81.6161281 40.9908371,64.4646495 52.1942388,54.9579286 C63.3976406,45.3424115 77.2152969,44.9491707 88.4503517,54.101402 C78.3415029,40.136651 63.5299434,36.1644434 50.4133551,43.7002651 C37.2967667,51.1384924 28.2259,68.5005638 27.1188108,88.348102 C26.0117217,108.172501 33.0668222,127.2473 45.2367435,137.456266 C38.1291775,127.561683 34.1124589,114.072573 34.1149253,100.04977 Z" id="Shape" fill="#FFFFFF" opacity="0.2"></path>
                    <polygon id="Rectangle-path" fill="#2F2E41" points="89.330884 36.2482199 92.2310782 39.1420078 85.12567 54.1684392 82.2254759 51.2634426"></polygon>
                    <polygon id="Rectangle-path" fill="#2F2E41" points="102.591813 130.797748 100.561075 135.031158 90.4135009 124.405447 92.4442387 120.183246"></polygon>
                    <polygon id="Rectangle-path" fill="#2F2E41" points="38.1968659 148.49567 35.2966717 145.520004 42.4020799 131.20821 45.302274 134.172668"></polygon>
                    <polygon id="Rectangle-path" fill="#2F2E41" points="24.9425396 56.9130129 26.9732774 52.7614934 37.1208519 62.672624 35.0901141 66.8353522"></polygon>
                    <polygon id="Rectangle-path" fill="#2F2E41" opacity="0.2" points="89.2986896 36.096356 92.1988837 38.9898689 85.0934756 54.0166101 82.1932814 51.1118885"></polygon>
                    <polygon id="Rectangle-path" fill="#2F2E41" opacity="0.2" points="102.56292 130.647109 100.532182 134.88061 90.3846074 124.255824 92.4153452 120.033532"></polygon>
                    <polygon id="Rectangle-path" fill="#2F2E41" opacity="0.2" points="38.1727581 148.342975 35.272564 145.367576 42.3779721 131.0554 45.2781663 134.01959"></polygon>
                    <polygon id="Rectangle-path" fill="#2F2E41" opacity="0.2" points="24.9140153 56.765875 26.9447531 52.6142591 37.0923276 62.5244477 35.0615898 66.6872723"></polygon>
                </g>
                <path d="M44.8911296,223.54 L0.0839534884,223.54 L0.0839534884,130.26 C0.0905643544,128.259113 2.03779717,126.639992 4.43754153,126.64 L40.5495349,126.64 C42.9539552,126.64 44.9031229,128.265206 44.9031229,130.27 L44.8911296,223.54 Z" id="Shape" fill="url(#linearGradient-8)"></path>
                <path d="M40.3216611,406.83 L4.65342193,406.83 C2.12977419,406.83 0.0839534884,405.124205 0.0839534884,403.02 L0.0839534884,309.93 L44.8911296,309.93 L44.8911296,403 C44.8975131,404.013936 44.4189079,404.98817 43.5612735,405.707015 C42.7036391,406.42586 41.5377269,406.830014 40.3216611,406.83 Z" id="Shape" fill="url(#linearGradient-9)"></path>
                <path d="M5.27707641,127.8 L39.6860133,127.8 C41.7857412,127.8 43.487907,129.219257 43.487907,130.97 L43.487907,221.2 L1.51116279,221.2 L1.51116279,131 C1.501575,130.159253 1.89296409,129.349768 2.59921958,128.749644 C3.30547508,128.149519 4.26873724,127.807919 5.27707641,127.8 L5.27707641,127.8 Z" id="Shape" fill="#FAFAFA"></path>
                <path d="M1.47518272,311.1 L43.4519269,311.1 L43.4519269,403.43 C43.4519269,404.015422 42.8827484,404.49 42.1806312,404.49 L2.75847176,404.49 C2.05635454,404.49 1.48717608,404.015422 1.48717608,403.43 L1.48717608,311.1 L1.47518272,311.1 Z" id="Shape" fill="#FAFAFA"></path>
            </g>
        </g>
        <g id="Group-5" transform="translate(199.017804, 1074.617052) rotate(7.000000) translate(-199.017804, -1074.617052) translate(115.517804, 999.617052)">
            <path d="M151.868973,33.4112309 L151.868973,117.03368 C151.868973,123.32912 146.743645,128.436741 140.42638,128.436741 L26.0004545,128.436741 C19.6831899,128.436741 14.5578619,123.32912 14.5578619,117.03368 L14.5578619,33.4112309 C14.5578619,27.1157908 19.6831899,22.0081697 26.0004545,22.0081697 L140.42638,22.0081697 C146.743645,22.0081697 151.868973,27.1157908 151.868973,33.4112309 Z" id="Path" fill="#FFFFFF" transform="translate(83.213417, 75.222455) rotate(-21.000000) translate(-83.213417, -75.222455) "></path>
            <path d="M126.623753,69.3546301 C126.623753,69.3546301 128.435497,78.1920026 128.840755,80.045 L120.878618,80.045 C121.665296,77.9306824 124.692816,69.7109758 124.692816,69.7109758 C124.645138,69.7822449 125.479494,67.5491454 125.956269,66.1712755 L126.623753,69.3546301 Z M151.868973,33.4112309 L151.868973,117.03368 C151.868973,123.32912 146.743645,128.436741 140.42638,128.436741 L26.0004545,128.436741 C19.6831899,128.436741 14.5578619,123.32912 14.5578619,117.03368 L14.5578619,33.4112309 C14.5578619,27.1157908 19.6831899,22.0081697 26.0004545,22.0081697 L140.42638,22.0081697 C146.743645,22.0081697 151.868973,27.1157908 151.868973,33.4112309 Z M50.9119321,93.0872513 L65.9780124,56.2173533 L55.8465502,56.2173533 L46.4779275,81.3991135 L45.4528619,76.2914924 L42.1154391,59.3294388 C41.5671482,56.9775574 39.874598,56.3123788 37.7767894,56.2173533 L22.3531281,56.2173533 L22.186257,56.953801 C25.952777,57.9040561 29.3140386,59.281926 32.246203,61.0161416 L40.7804699,93.0872513 L50.9119321,93.0872513 Z M73.4156976,93.1347641 L79.4230587,56.2173533 L69.8398874,56.2173533 L63.856365,93.1347641 L73.4156976,93.1347641 L73.4156976,93.1347641 Z M106.766087,81.0665243 C106.813765,76.8616454 104.239181,73.6545345 98.7324337,71.0175766 C95.3711721,69.3308737 93.3210409,68.1905676 93.3210409,66.4563521 C93.3687184,64.8884311 95.0612686,63.2729975 98.8277886,63.2729975 C101.950663,63.2017283 104.239181,63.938176 105.95557,64.6746237 L106.813765,65.0784822 L108.124895,57.0963393 C106.241635,56.3598916 103.237955,55.5284184 99.5429507,55.5284184 C90.078973,55.5284184 83.4279661,60.5647704 83.3802886,67.7391964 C83.3087724,73.0368686 88.1480355,75.9826595 91.7715232,77.7643878 C95.466527,79.5698725 96.72998,80.7576913 96.72998,82.3493686 C96.6823025,84.8200319 93.7262994,85.960338 90.9848449,85.960338 C87.1706474,85.960338 85.1205162,85.3664286 81.997642,83.9885587 L80.7341891,83.3946493 L79.3992199,91.685625 C81.640061,92.7071493 85.7880008,93.6098916 90.078973,93.6574044 C100.138919,93.6811607 106.694571,88.7160778 106.766087,81.0665243 Z M140.42638,93.1347641 L132.70263,56.2173533 L125.288784,56.2173533 C123.000265,56.2173533 121.260038,56.8825319 120.28265,59.281926 L106.050925,93.1347641 L116.110871,93.1347641 C116.110871,93.1347641 117.755744,88.5735396 118.113325,87.5995281 L130.414112,87.5995281 C130.700177,88.9061288 131.558371,93.1347641 131.558371,93.1347641 L140.42638,93.1347641 Z" id="Shape" fill="#FF6666" fill-rule="nonzero" transform="translate(83.213417, 75.222455) rotate(-21.000000) translate(-83.213417, -75.222455) "></path>
        </g>
        <g id="apple" transform="translate(797.151799, 1080.151799) rotate(-13.000000) translate(-797.151799, -1080.151799) translate(726.151799, 1009.151799)">
            <circle id="Oval-4" fill="#2F2E41" cx="70.7981664" cy="70.7981664" r="70.7981664"></circle>
            <path d="M91.6956358,68.1904669 C91.6597364,61.6029219 94.6393889,56.6308511 100.670493,52.9691094 C97.2959466,48.1406364 92.1982278,45.4840787 85.467085,44.963537 C79.0949365,44.460945 72.1304475,48.6791278 69.5815881,48.6791278 C66.889131,48.6791278 60.7144293,45.1430341 55.8680066,45.1430341 C45.8520661,45.3045815 35.2078857,53.1306569 35.2078857,69.0520532 C35.2078857,73.7548783 36.069472,78.6132676 37.7926445,83.627221 C40.0902079,90.2147661 48.3829758,106.369509 57.034738,106.100263 C61.5580659,105.992565 64.753115,102.887264 70.6406212,102.887264 C76.3486303,102.887264 79.3103331,106.100263 84.3542027,106.100263 C93.0777638,105.974615 100.580744,91.2917489 102.770609,84.6862542 C91.0673958,79.1756919 91.6956358,68.5315115 91.6956358,68.1904669 Z M81.5360976,38.7170365 C86.4363696,32.9013291 85.9876267,27.6061635 85.844029,25.7034938 C81.5181479,25.9547898 76.5101777,28.6472469 73.6561732,31.967944 C70.5149732,35.5219874 68.6661527,39.9196673 69.0610464,44.8737884 C73.7459217,45.2327827 78.0179537,42.827521 81.5360976,38.7170365 Z" id="Shape" fill="#FFFFFF" fill-rule="nonzero"></path>
        </g>
    </g>
</svg>