<?xml version="1.0" encoding="UTF-8"?>
<svg width="583px" height="676px" viewBox="0 0 583 676" version="1.1" xmlns="http://www.w3.org/2000/svg" xmlns:xlink="http://www.w3.org/1999/xlink">
    <!-- Generator: Sketch 44.1 (41455) - http://www.bohemiancoding.com/sketch -->
    <title>undraw_QA_engineers_dg5p (1)</title>
    <desc>Created with Sketch.</desc>
    <defs>
        <filter x="-1.4%" y="-2.0%" width="102.9%" height="104.1%" filterUnits="objectBoundingBox" id="filter-1">
            <feOffset dx="0" dy="1" in="SourceAlpha" result="shadowOffsetOuter1"></feOffset>
            <feGaussianBlur stdDeviation="5" in="shadowOffsetOuter1" result="shadowBlurOuter1"></feGaussianBlur>
            <feColorMatrix values="0 0 0 0 0   0 0 0 0 0   0 0 0 0 0  0 0 0 0.1 0" type="matrix" in="shadowBlurOuter1" result="shadowMatrixOuter1"></feColorMatrix>
            <feMerge>
                <feMergeNode in="shadowMatrixOuter1"></feMergeNode>
                <feMergeNode in="SourceGraphic"></feMergeNode>
            </feMerge>
        </filter>
    </defs>
    <g id="Page-1" stroke="none" stroke-width="1" fill="none" fill-rule="evenodd">
        <g id="undraw_QA_engineers_dg5p-(1)" filter="url(#filter-1)" transform="translate(71.500000, 376.500000) scale(-1, 1) translate(-71.500000, -376.500000) translate(-465.000000, -14.000000)" fill-rule="nonzero">
            <path d="M414.23,634.2 C414.23,634.2 466.11,616.73 455.37,554.83 L389.47,537.72 L374.17,588.51 L414.23,634.2 Z" id="Shape" fill="#CED7E7"></path>
            <path d="M374.17,588.51 L414.22,634.2 C414.22,634.2 466.1,616.73 455.36,554.83 L374.17,588.51 Z" id="Shape" fill="#000000" opacity="0.1"></path>
            <path d="M156.17,131.21 C156.17,131.21 163.17,142.6 172.74,136.91 C182.31,131.22 173.13,115.5 173.13,115.5 C173.13,115.5 154.8,112.99 156.17,131.21 Z" id="Shape" fill="#FED253"></path>
            <path d="M172.74,136.91 C170.458537,138.386213 167.669378,138.8565 165.03,138.21 C161.52,137.32 158.82,134.62 157.37,132.85 C156.937411,132.331429 156.536675,131.787096 156.17,131.22 C155.68,124.72 157.7,120.85 160.5,118.57 L160.5,118.57 C164.35,115.44 169.68,115.31 171.98,115.41 C172.69,115.41 173.1,115.51 173.1,115.51 L173.29,115.83 C173.56,116.34 174.15,117.47 174.78,118.98 C176.92,123.93 179.47,132.9 172.74,136.91 Z" id="Shape" fill="#000000" opacity="0.1"></path>
            <path d="M419.33,551.92 L455.33,554.83 L522.33,555.38 L469.54,620.38 C469.54,620.38 452.79,621.29 449.34,623.65 C445.89,626.01 397.45,624.75 397.45,624.75 L389.63,591.43 L419.33,551.92 Z" id="Shape" fill="#D09560"></path>
            <path d="M419.33,551.92 L455.33,554.83 L522.33,555.38 L469.54,620.38 C469.54,620.38 452.79,621.29 449.34,623.65 C445.89,626.01 397.45,624.75 397.45,624.75 L389.63,591.43 L419.33,551.92 Z" id="Shape" fill="#000000" opacity="0.05"></path>
            <path d="M382.92,377.16 L391.29,391.36 L393.11,416.12 C393.11,416.12 398.94,437.23 403.31,443.42 C407.68,449.61 409.5,466 409.5,466 C409.5,466 411.32,481.29 413.5,484.56 C415.68,487.83 418.6,511.56 418.6,511.56 C418.6,511.56 437.9,550.15 455.37,554.88 C455.37,554.88 368.72,583.28 414.23,634.25 C414.23,634.25 381.83,642.25 374.18,633.16 C366.53,624.07 346.51,489.35 346.51,489.35 L352.7,375.75 L382.92,377.16 Z" id="Shape" fill="#CED7E7"></path>
            <path d="M382.92,377.16 L391.29,391.36 L393.11,416.12 C393.11,416.12 398.94,437.23 403.31,443.42 C407.68,449.61 409.5,466 409.5,466 C409.5,466 411.32,481.29 413.5,484.56 C415.68,487.83 418.6,511.56 418.6,511.56 C418.6,511.56 437.9,550.15 455.37,554.88 C455.37,554.88 368.72,583.28 414.23,634.25 C414.23,634.25 381.83,642.25 374.18,633.16 C366.53,624.07 346.51,489.35 346.51,489.35 L352.7,375.75 L382.92,377.16 Z" id="Shape" fill="#000000" opacity="0.05"></path>
            <path d="M277.79,238.77 C275.358463,251.383518 276.079822,264.402329 279.89,276.67 L266.41,315.26 C266.41,315.26 163.74,258.1 172.48,244.26 C177.43,236.41 178.06,215.64 177.66,199.14 C177.37,186.6 176.48,176.54 176.48,176.54 C176.48,176.54 302.48,188.93 285.71,217.69 C281.91493,224.226784 279.238115,231.351438 277.79,238.77 Z" id="Shape" fill="#D09560"></path>
            <path d="M285.71,217.69 C281.91493,224.226784 279.238115,231.351438 277.79,238.77 C239.234204,251.104492 197.331145,234.51987 177.66,199.14 C177.37,186.6 176.48,176.54 176.48,176.54 C176.48,176.54 302.45,188.93 285.71,217.69 Z" id="Shape" fill="#000000" opacity="0.1"></path>
            <path d="M336.68,155.79 C336.703848,192.428883 313.204733,224.943742 278.408807,236.417704 C243.612881,247.891666 205.382386,235.732155 183.607934,206.265538 C161.833483,176.79892 161.435077,136.683266 182.62,106.79 C183.82,105.103333 185.083333,103.456667 186.41,101.85 C193.969308,92.6622178 203.376171,85.1667095 214.02,79.85 C219.794668,76.9609574 225.885525,74.7528119 232.17,73.27 C255.107864,67.8359146 279.272292,72.1713678 298.890385,85.2406168 C318.508479,98.3098659 331.818256,118.939107 335.64,142.2 C336.346325,146.695274 336.694088,151.239595 336.68,155.79 Z" id="Shape" fill="#D19560"></path>
            <path d="M370.17,504.6 C368.9,511.38 370.49,523.77 372.9,536.38 C373,536.93 373.11,537.48 373.22,538.03 C373.33,538.58 373.49,539.43 373.63,540.12 C374.74,545.54 375.95,550.91 377.13,555.79 C378.31,560.67 379.37,564.85 380.27,568.29 C381.63,573.44 382.56,576.68 382.56,576.68 C382.56,576.68 382.68,579.86 382.84,584.92 C382.93,587.84 383.03,591.4 383.13,595.33 C383.13,596.47 383.2,597.63 383.23,598.83 C383.28,600.92 383.33,603.09 383.38,605.31 C383.38,606.03 383.38,606.75 383.43,607.48 C383.43,609.87 383.52,612.31 383.56,614.74 C383.61,618.08 383.65,621.42 383.67,624.66 C383.67,625.9 383.67,627.12 383.67,628.32 C383.67,631.42 383.67,634.39 383.67,637.12 C383.56,644.87 383.25,650.72 382.59,652.41 C382.36,652.99 382.15,653.62 381.95,654.28 C381.082896,657.384139 380.454397,660.550033 380.07,663.75 C358.383152,670.814189 342.770939,675.352117 333.233362,677.363784 C318.926998,680.381285 275.28891,682.530974 259.49,684.113355 C225.036397,687.564146 103.505389,680.119067 94.2,677.363784 C93.8219811,677.386295 88.7253144,675.059927 78.91,670.384682 C76.2433333,669.358015 74.9733333,664.026667 72.36,662.36 C71.92,658.59 68.46,637.12 72.36,632.39 L68.46,612.97 L65.46,597.97 L59.17,566.51 L56.17,551.51 L49.8,520.07 L46.8,505.07 L40.48,473.57 L37.48,458.62 L36.17,452.12 L34.5,443.79 C34.5,443.79 35.31,437.582859 29.31,428.572859 L25.1,411.38 C26.77,405.03317 25.1,398.797835 26.77,391.4 C27,391.07 24.85,378.774139 25.1,378.434139 C27.1,375.634139 29.09,365.06 29.31,364.73 C33.92,358.07 37.72,352.26 38.5,350.2 C39.72,346.95 47.5,337.34 55.25,328.91 C61.36,322.25 67.44,316.33 70.17,314.91 C76.36,311.64 78.91,301.07 78.91,301.07 C78.91,301.07 92.38,296.35 94.2,292.71 C96.02,289.07 121.51,272.71 121.51,272.71 C121.51,272.71 131.82,266.07 135.99,262.07 C136.580301,261.546936 137.095206,260.944531 137.52,260.28 C138.97,257.68 148.44,255.54 152.29,254.77 C153.29,254.57 153.91,254.46 153.91,254.46 C155.464276,251.635689 157.429001,249.057619 159.74,246.81 C161.31,245.42 163.27,240.63 164.92,235.99 C166.71,230.93 168.1,226.06 168.1,226.06 C171.02,216.23 176.84,219.14 176.84,219.14 C176.832072,220.482709 176.959381,221.822803 177.22,223.14 C179.65,235.14 192.85,240.14 199.78,245.75 C207.43,251.93 219.44,267.96 228.91,271.23 C236.75,273.94 245.84,284.16 248.72,287.57 C249.42,288.39 249.66,288.71 249.66,288.71 C249.66,288.71 255.03,288.43 258.3,288.37 L259.49,288.37 C260.155149,288.303259 260.787001,288.046353 261.31,287.63 C264.56,285.42 269.4,278.94 271.51,277.45 C274.05,275.62 276.61,246.13 276.61,246.13 C285.81,241.82 295.54,284.36 295.54,284.36 C295.54,284.36 312.65,289.46 314.11,293.1 C314.39,293.82 315.68,295.1 317.62,296.65 C326.453357,303.400684 335.855207,309.373034 345.72,314.5 C346.568305,314.916906 346.7719,315.013697 346.98,315.1 C347.35,315.28 347.71,315.44 348.05,315.59 C348.59,315.83 349.09,316.03 349.55,316.19 C351.583266,316.876843 352.932968,317.575313 354.15,318.47 C354.51,318.73 354.87,319 355.22,319.29 C356.581772,320.423328 357.833951,321.682203 358.96,323.05 C360.21,324.61 360.89,325.55 361.45,326.42 C362.369066,327.762167 363.207222,329.157981 363.96,330.6 C363.96,330.6 378.88,356.09 383.62,358.99 C388.36,361.89 391.27,391.4 391.27,391.4 L375.27,450.71 C375.27,450.71 374.52,465.71 373.12,481.01 C372.34,489.59 371.35,498.32 370.17,504.6 Z" id="Shape" fill="#CED7E7"></path>
            <path d="M249.66,290.51 C249.66,290.51 238.93,296.33 230.55,296.88 C229.453033,296.931188 228.35372,296.867508 227.27,296.69 C218.49,295.36 205.61,288.14 205.61,288.14 L220.72,271.57 L239.1,280.68 L245.86,286.97 L249.66,290.51 Z" id="Shape" fill="#63667E"></path>
            <path d="M335.6,142.2 C335.219804,142.737691 334.787731,143.236752 334.31,143.69 C329.05,148.69 319.71,146.62 312.54,145.46 C306.30959,144.441416 300.223145,142.682289 294.41,140.22 C289.35,138.06 283.28,135.42 278.73,138.52 C276.98,139.7 275.78,141.59 273.96,142.63 C272.14,143.67 269.82,143.74 267.67,143.77 C260.67,143.77 253.67,143.85 246.84,142.27 C236.65,139.89 226.11,133.9 216.42,137.85 C208.84,140.93 204.73,149.18 202.68,157.11 C201.68,161 200.94,165.11 198.68,168.41 C196.42,171.71 192.05,174.05 188.33,172.5 C182.84,170.21 182.03,160.89 175.41,160.42 C168.14,159.91 168.23,167.42 170.35,172.85 C173.49,180.85 177.6,188.85 177.78,197.19 C161.833594,168.628757 163.716429,133.446207 182.62,106.75 C184.231894,105.751798 185.493477,104.277038 186.23,102.53 C186.304074,102.293739 186.364178,102.053324 186.41,101.81 C186.96,99.02 185.41,96.09 185.32,93.17 C184.97,86.04 192.69,81.07 199.77,80.17 C204.48,79.57 209.3,80.03 214.02,79.88 L214.02,79.88 C216.397476,79.8276329 218.76186,79.5123817 221.07,78.94 C225.051979,77.7468115 228.780634,75.8316388 232.07,73.29 C255.007864,67.8559146 279.172292,72.1913678 298.790385,85.2606168 C318.408479,98.3298659 331.718256,118.959107 335.54,142.22 L335.6,142.2 Z" id="Shape" fill="#000000" opacity="0.1"></path>
            <path d="M337.31,136.31 C336.811482,138.287963 335.772796,140.088351 334.31,141.51 C329.05,146.51 319.71,144.43 312.54,143.27 C306.309196,142.273615 300.221698,140.527615 294.41,138.07 C289.35,135.92 283.28,133.28 278.73,136.38 C276.98,137.56 275.78,139.45 273.96,140.49 C272.14,141.53 269.82,141.6 267.67,141.62 C260.67,141.67 253.67,141.71 246.84,140.13 C236.65,137.74 226.11,131.76 216.42,135.7 C208.84,138.78 204.73,147.04 202.68,154.97 C201.68,158.86 200.94,162.97 198.68,166.26 C196.42,169.55 192.05,171.91 188.33,170.36 C182.84,168.07 182.03,158.75 175.41,158.28 C168.14,157.77 168.23,165.28 170.35,170.71 C174.07,180.18 179.13,189.6 177.47,199.64 C175.82,199.64 173.09,199.58 171.47,199.54 C172.73,197.39 170.33,194.83 167.94,194.1 C165.55,193.37 162.76,193.38 160.94,191.64 C159.12,189.9 159.11,187.21 159.3,184.8 C159.714797,179.649012 160.974989,174.601484 163.03,169.86 C164.34,166.86 166.03,163.61 165.03,160.47 C164.429756,159.046709 163.707041,157.678234 162.87,156.38 C160.79,152.38 161.28,147.38 163.06,143.25 C163.82,141.49 164.37,139.83 165,138.25 C165.795603,136.004076 166.946947,133.900594 168.41,132.02 C170.7,129.17 172.94,124.88 170.41,122.23 C169.77,121.56 171.05,121.1 170.64,120.23 C170.567544,120.081408 170.517018,119.923094 170.49,119.76 C170.372446,118.706612 170.627162,117.645294 171.21,116.76 C171.328091,116.529944 171.458273,116.306298 171.6,116.09 C171.715015,115.861483 171.845311,115.640982 171.99,115.43 C174.204347,111.732849 177.147292,108.524529 180.64,106 C182.81,104.43 185.35,102.92 186.21,100.38 C187.21,97.38 185.45,94.19 185.3,91.02 C184.95,83.89 192.67,78.92 199.75,78.02 C206.83,77.12 214.17,78.61 221.07,76.78 C230.86,74.2 237.74,65.56 246.63,60.71 C256.48538,55.4403311 268.222579,55.0195636 278.43,59.57 C288.81,64.31 296.64,73.89 307.48,77.49 C311.32,78.77 315.48,79.28 318.94,81.4 C322.94,83.86 325.37,88.16 327.45,92.4 C330.62,98.83 331.26,105.29 333.45,112.1 C335.19,117.5 337.6,124.56 337.8,130.78 C337.912426,132.637442 337.747277,134.501266 337.31,136.31 L337.31,136.31 Z" id="Shape" fill="#896363"></path>
            <g id="Group" opacity="0.1" transform="translate(159.000000, 89.000000)" fill="#000000">
                <path d="M12.71,34.78 C13.0340721,33.4839556 12.7587237,32.1108848 11.96,31.04 C12.22,31.82 11.09,32.27 11.71,32.92 C12.2039326,33.4392265 12.5493026,34.0816148 12.71,34.78 L12.71,34.78 Z" id="Shape"></path>
                <path d="M11.93,28.75 L11.93,28.75 C11.8121469,29.0990232 11.7415203,29.4622454 11.72,29.83 C11.91,29.51 12.17,29.18 11.93,28.75 Z" id="Shape"></path>
                <path d="M175.59,50.07 C170.32,55.07 160.99,53 153.8,51.83 C147.573583,50.8275087 141.492246,49.0712747 135.69,46.6 C130.62,44.44 124.56,41.8 120,44.9 C118.26,46.08 117.06,47.97 115.23,49.01 C113.4,50.05 111.09,50.12 108.94,50.14 C101.94,50.14 94.94,50.23 88.1,48.64 C77.92,46.26 67.38,40.29 57.69,44.22 C50.11,47.31 46,55.56 43.95,63.49 C42.95,67.38 42.22,71.49 39.95,74.79 C37.68,78.09 33.31,80.43 29.6,78.89 C24.11,76.59 23.3,67.28 16.68,66.81 C11.51,66.44 10.07,70.14 10.42,74.25 C10.72,71.11 12.42,68.69 16.68,68.99 C23.3,69.46 24.11,78.78 29.6,81.07 C33.31,82.62 37.69,80.29 39.95,76.97 C42.21,73.65 42.95,69.56 43.95,65.68 C46,57.75 50.11,49.49 57.69,46.41 C67.38,42.47 77.92,48.41 88.1,50.83 C94.9,52.42 101.96,52.37 108.94,52.32 C111.09,52.32 113.36,52.26 115.23,51.2 C117.1,50.14 118.23,48.27 120,47.08 C124.56,43.99 130.62,46.63 135.69,48.78 C141.493489,51.2499662 147.574256,53.0093929 153.8,54.02 C160.99,55.18 170.32,57.27 175.59,52.25 C178.45,49.52 179.31,45.57 179.12,41.25 C178.96,44.68 177.96,47.79 175.59,50.07 Z" id="Shape"></path>
                <path d="M26.65,0.21 C26.5946751,0.7079612 26.5746252,1.20921081 26.59,1.71 C26.69,3.79 27.48,5.87 27.73,7.9 C28.1,5.41 26.95,2.81 26.65,0.21 Z" id="Shape"></path>
                <path d="M6.33,71.16 C6.41244584,71.4590265 6.47590573,71.762966 6.52,72.07 C6.68211719,71.0384382 6.61727683,69.9839291 6.33,68.98 C5.73381234,67.5516048 5.01092617,66.1794598 4.17,64.88 C3.41870518,63.400734 2.97317261,61.7852533 2.86,60.13 C2.65667942,62.5194566 3.10963389,64.9190779 4.17,67.07 C5.01284323,68.3648319 5.73583772,69.7338354 6.33,71.16 L6.33,71.16 Z" id="Shape"></path>
                <path d="M18.74,108.14 L12.89,108.05 C13.1664463,108.76597 13.1001353,109.569069 12.71,110.23 C14.36,110.23 17.1,110.29 18.71,110.33 C18.9897286,108.618464 19.0869402,106.882064 19,105.15 C18.9772676,106.151196 18.8904231,107.149908 18.74,108.14 Z" id="Shape"></path>
                <path d="M9.17,102.61 C6.78,101.89 4,101.88 2.22,100.13 C1.17217061,98.9837803 0.581486813,97.4928375 0.56,95.94 C0.41,98.24 0.56,100.72 2.22,102.32 C4,104.07 6.78,104.08 9.17,104.8 C10.741651,105.257159 12.0550106,106.34258 12.8,107.8 C13.81,105.73 11.49,103.3 9.17,102.61 Z" id="Shape"></path>
            </g>
            <path d="M350.1,641.19 C348.98,640.54 347.84,639.93 346.68,639.35 C344.290303,638.14529 341.840422,637.063871 339.34,636.11 C327.79,631.71 315.42,630.11 302.88,630.38 C297.88,632.29 294.63,633.66 294.63,633.66 L288.27,635.58 L287.21,635.9 C287.14,635.2 287.06,634.5 286.99,633.79 C286.92,633.08 286.84,632.4 286.76,631.7 C284.52,610.49 282.76,588.7 282.76,588.7 L282.76,569.88 L282.76,567.69 L282.64,512.24 L281.64,493.96 L281.17,485.87 L281.08,484.33 L280.9,481.17 L280.8,479.29 C280.579276,478.69434 280.392313,478.086709 280.24,477.47 L280.24,477.47 C280.17,477.22 280.1,476.94 280.04,476.65 C279.79,475.65 279.52,474.36 279.24,472.96 C277.41,463.76 275.12,448.25 274.98,445.1 C274.8,440.9 271.16,415.78 271.16,415.78 C270.79,401.95 259.16,375.91 256.23,371 C253.3,366.09 250.03,336.59 251.13,335 C251.7,334.15 252.07,329.12 252.3,324.48 C252.3,323.95 252.35,323.43 252.37,322.92 C252.52,319.29 252.59,316.26 252.59,316.26 L264.03,314 L267.1,313.4 L267.34,313.35 L267.44,313.55 C267.77,314.16 268.8,316.11 270.01,318.67 C270.15,318.94 270.28,319.23 270.42,319.52 C270.48,319.66 270.55,319.8 270.62,319.94 C272.86,324.84 275.45,331.29 275.34,335 C275.16,341.56 282.63,357.4 282.63,357.4 C283.35,361.04 299.19,397.26 299.19,397.26 C299.19,397.26 312.12,432.76 311.39,438.59 C310.66,444.42 317.58,483.01 317.58,483.01 L324.68,522.7 C328.13,530.52 332.68,548.54 332.68,548.54 L334.41,558.76 L334.74,560.71 L339.35,587.98 L341.61,601.34 C341.61,601.34 342.56,608.44 344,616.34 C344.12,617.05 344.26,617.77 344.4,618.49 C345.287155,623.690408 346.54707,628.8203 348.17,633.84 C348.974786,636.244737 349.619529,638.700103 350.1,641.19 L350.1,641.19 Z" id="Shape" fill="#000000" opacity="0.1"></path>
            <path d="M346.68,639.35 C344.290303,638.14529 321.150422,671.103138 318.65,670.149268 C307.1,665.749268 306.347125,661.700439 301.677436,655.632511 C297.017792,649.378951 292.548647,642.694781 288.27,635.58 C288.19,634.88 288.12,634.18 288.04,633.47 C287.96,632.76 287.9,632.19 287.84,631.55 C285.6,610.39 283.84,588.7 283.84,588.7 L283.84,569.7 L283.84,567.51 L283.72,512.2 L282.72,494.74 L282.52,491.12 L282.38,488.67 L282.2,485.43 L282.02,482.14 L281.89,479.77 C281.63,478.54 281.4,477.72 281.15,476.68 C280.98,475.95 280.92,475.7 280.87,475.45 C278.99,466.92 276.23,448.53 276.08,445.08 C275.9,440.88 272.26,415.76 272.26,415.76 C271.89,401.93 260.26,375.89 257.33,370.98 C254.4,366.07 251.14,336.57 252.23,334.98 C252.86,333.98 253.23,327.91 253.47,322.9 C253.47,322.5 253.47,322.11 253.47,321.74 C253.6,318.65 253.65,316.24 253.65,316.24 L264.29,314.14 L266.99,313.61 L267.41,313.53 L268.41,313.33 C268.41,313.33 269.72,315.75 271.29,319.08 C273.78,324.44 276.49,331.16 276.41,334.98 C276.23,341.54 283.7,357.38 283.7,357.38 C284.42,361.02 300.26,397.24 300.26,397.24 C300.26,397.24 313.19,432.74 312.46,438.57 C311.73,444.4 318.65,482.99 318.65,482.99 L325.75,522.68 C329.2,530.5 333.75,548.52 333.75,548.52 L335.36,558.04 L335.69,559.97 L339.32,581.49 L342.67,601.32 C342.67,601.32 343.67,608.39 345.05,616.32 C345.18,617.04 345.31,617.76 345.45,618.49 C346.335803,623.713644 347.595713,628.866906 349.22,633.91 C350.106523,636.522332 347.84,639.93 346.68,639.35 Z" id="Shape" fill="#63667E"></path>
            <path d="M342.32,128.31 C342.32,128.31 338.5,133.23 335.05,133.23 C331.6,133.23 318.17,132.68 311.17,130.5 C304.17,128.32 269.85,126.67 269.85,126.67 C269.85,126.67 221.25,126.85 219.61,125.21 C217.97,123.57 189.39,114.83 186.48,115.38 C185.87,115.5 184.38,115.76 182.39,116.09 L180.11,116.46 C176.66,117.01 172.35,117.65 168.41,118.12 C163.54,118.69 159.26,118.98 157.9,118.48 L157.9,114.29 C157.9,114.29 163.54,106.09 163.9,103.74 C164.26,101.39 169,67.32 181.38,55.13 C186.494463,45.3530956 194.771265,37.5980001 204.86,33.13 C221.61,25.84 238.36,19.66 238.36,19.66 L241.29,19.24 L250.74,17.84 C251.027265,17.5540378 251.338392,17.2930925 251.67,17.06 C254.29,15.06 262.23,10.71 272.58,20.06 L274.41,22.98 C274.41,22.98 306.26,30.44 321,56.47 C335.74,82.5 336.48,107.99 337.57,119.64 C337.57,119.64 336.84,122.92 338.3,124.19 C338.828566,124.656913 339.332575,125.150909 339.81,125.67 C339.94,125.8 340.07,125.93 340.19,126.07 C340.61,126.49 341,126.93 341.32,127.29 C341.358186,127.318099 341.391901,127.351814 341.42,127.39 C341.498086,127.484721 341.581557,127.57487 341.67,127.66 L342.32,128.31 Z" id="Shape" fill="#FED253"></path>
            <path d="M342.32,128.31 C342.32,128.31 338.5,133.23 335.05,133.23 C331.6,133.23 318.17,132.68 311.17,130.5 C304.17,128.32 269.85,126.67 269.85,126.67 C269.85,126.67 221.25,126.85 219.61,125.21 C217.97,123.57 189.39,114.83 186.48,115.38 C185.87,115.5 184.38,115.76 182.39,116.09 L181.87,112.89 L181.74,112.1 C181.74,112.1 236.9,100.27 273.67,106.47 C310.44,112.67 337.57,119.57 337.57,119.57 C337.57,119.57 336.84,122.85 338.3,124.12 C338.828566,124.586913 339.332575,125.080909 339.81,125.6 C339.94,125.73 340.07,125.86 340.19,126 C340.61,126.42 341,126.86 341.32,127.22 C341.358186,127.248099 341.391901,127.281814 341.42,127.32 C341.498278,127.414552 341.581739,127.504691 341.67,127.59 L342.32,128.31 Z" id="Shape" fill="#000000" opacity="0.05"></path>
            <path d="M337.31,136.31 C330.5,136.84 317.95,135.18 312.46,134.37 C310.9,134.14 309.37,133.86 307.83,133.52 C301.94,132.24 283.83,128.65 272.83,130.31 C259.54,132.31 222.04,128.67 222.04,128.67 C222.04,128.67 198.92,123.94 189.63,120.12 C186.22,118.71 180.52,118.27 174.85,118.97 C173.404044,119.150352 171.968689,119.407381 170.55,119.74 C162.81,121.57 156.28,125.74 157.41,132.85 C156.977411,132.331429 156.576675,131.787096 156.21,131.22 C155.72,124.72 157.74,120.85 160.54,118.57 L160.54,118.57 L161.2,118.3 C164.620452,117.328081 168.101361,116.583127 171.62,116.07 C172.17,115.98 172.74,115.9 173.32,115.83 C183.27,114.49 197.66,114.19 209.8,120.3 C209.8,120.3 221.08,125.59 228.73,125.59 C236.38,125.59 298.63,126.14 313.2,130.32 C316.100534,131.157982 319.058404,131.782978 322.05,132.19 C327.361932,132.874839 332.759743,132.365805 337.85,130.7 C337.95414,132.586536 337.772077,134.477966 337.31,136.31 L337.31,136.31 Z" id="Shape" fill="#000000" opacity="0.1"></path>
            <path d="M342.32,128.31 C342.32,128.31 338.5,133.23 335.05,133.23 C331.6,133.23 318.17,132.68 311.17,130.5 C304.17,128.32 269.85,126.67 269.85,126.67 C269.85,126.67 221.25,126.85 219.61,125.21 C217.97,123.57 189.39,114.83 186.48,115.38 C185.87,115.5 184.38,115.76 182.39,116.09 L180.11,116.46 C176.149913,116.439761 172.20817,116.999017 168.41,118.12 C163.54,118.69 159.26,118.98 157.9,118.48 L157.9,117.65 C158.94853,117.041501 160.041659,116.513322 161.17,116.07 C167.918062,114.180363 174.866798,113.099449 181.87,112.85 C190.6,112.53 200.81,113.55 209.78,118.07 C209.78,118.07 221.06,123.36 228.71,123.36 C236.36,123.36 298.61,123.9 313.18,128.09 C316.081899,128.920136 319.03944,129.541721 322.03,129.95 C328.59209,130.776919 335.255756,129.820032 341.32,127.18 C341.358186,127.208099 341.391901,127.241814 341.42,127.28 C341.498278,127.374552 341.581739,127.464691 341.67,127.55 L342.32,128.31 Z" id="Shape" fill="#000000" opacity="0.1"></path>
            <path d="M157.55,132.68 C157.55,132.68 145.35,123.39 161.19,117.2 C161.19,117.2 188.86,108.65 209.8,119.2 C209.8,119.2 221.08,124.47 228.73,124.47 C236.38,124.47 298.63,125.02 313.2,129.21 C316.101635,130.041202 319.059252,130.662803 322.05,131.07 C329.801527,132.009875 337.653566,130.517743 344.52,126.8 C345.52,126.25 346.42,125.97 346.69,126.29 C347.6,127.39 346.88,133.76 338.87,135.03 C332.62,136.03 318.42,134.14 312.45,133.27 C310.9,133.04 309.36,132.75 307.83,132.42 C301.94,131.14 283.83,127.55 272.78,129.21 C259.5,131.21 221.99,127.57 221.99,127.57 C221.99,127.57 198.88,122.84 189.59,119.01 C180.3,115.18 154.09,118.48 157.55,132.68 Z" id="Shape" fill="#FED253"></path>
            <path d="M260.4,35.07 C259.4,33.63 246.55,23.34 241.31,19.18 L250.76,17.78 C251.047265,17.4940378 251.358392,17.2330925 251.69,17 C258.56,24.21 260.4,35.07 260.4,35.07 Z" id="Shape" fill="#000000" opacity="0.1"></path>
            <polygon id="Shape" fill="#000000" opacity="0.1" points="218.72 90.26 214.53 96.45 230.55 95.91 230.91 88.99"></polygon>
            <polygon id="Shape" fill="#000000" opacity="0.1" points="316.47 97.73 318.29 103.37 328.49 105.01 324.12 98.27"></polygon>
            <path d="M141.35,287.07 C142.44,288.89 178.3,336.07 187.77,334.76 C197.24,333.45 141.35,287.07 141.35,287.07 Z" id="Shape" fill="#000000" opacity="0.1"></path>
            <path d="M261.5,330.19 C261.5,330.19 270.24,338.57 268.96,341.84 C267.68,345.11 261.5,330.19 261.5,330.19 Z" id="Shape" fill="#000000" opacity="0.1"></path>
            <path d="M166.11,387.72 C166.11,387.72 158.46,423.58 162.47,424.72 C166.48,425.86 166.11,387.72 166.11,387.72 Z" id="Shape" fill="#000000" opacity="0.1"></path>
            <path d="M264.41,526.98 C265.68,530.62 276.24,554.29 278.61,555.56 C280.98,556.83 264.41,526.98 264.41,526.98 Z" id="Shape" fill="#000000" opacity="0.1"></path>
            <path d="M387.11,429.77 C386.74,431.04 377.64,438.51 379.64,441.24 C381.64,443.97 387.11,429.77 387.11,429.77 Z" id="Shape" fill="#000000" opacity="0.1"></path>
            <path d="M316.47,496.21 C316.29,497.13 314.47,516.21 317.93,519.88 C321.39,523.55 316.47,496.21 316.47,496.21 Z" id="Shape" fill="#000000" opacity="0.1"></path>
            <path d="M409.75,595.33 C407.11,596.8 404.38,598.22 401.6,599.58 C398.6,601.04 395.6,602.43 392.54,603.74 C391.32,604.27 390.1,604.79 388.89,605.29 C387.05,606.05 385.23,606.78 383.43,607.48 C377.96,609.62 372.69,611.48 368,613.05 C366.18,613.66 364.44,614.22 362.82,614.74 C354.66,617.33 349.24,618.74 349.24,618.74 C348.001896,618.474957 346.734769,618.370763 345.47,618.43 C345.12,618.43 344.76,618.43 344.39,618.43 C342.696426,618.552802 341.010666,618.766443 339.34,619.07 C328.17,621.07 312.39,626.68 302.88,630.35 C297.88,632.26 294.63,633.63 294.63,633.63 L288.27,635.55 L287.21,635.87 C280.32,637.97 270.63,640.95 267.14,642.19 C261.5,644.19 212.53,654.38 212.53,654.38 C208.056247,655.60116 203.486267,656.43754 198.87,656.88 C187.494676,657.923717 176.061065,658.184331 164.65,657.66 C153.19,658.4 134.65,655.88 123.86,654.18 L122.14,653.91 C117.97,653.23 115.32,652.74 115.32,652.74 L116.72,650.81 L145.43,611.2 L145.6,610.96 L172.35,574.07 L173.35,572.73 L175.78,569.38 C175.78,569.38 177.24,567.38 182.86,567.25 C183.52,567.25 184.24,567.25 185.03,567.25 C189.750691,567.629493 194.407984,568.579756 198.9,570.08 L200.2,570.47 C219.57,576.02 249.51,574.63 249.51,574.63 C249.51,574.63 268.14,571.63 282.78,569.83 L283.87,569.69 C288.654011,569.014053 293.471016,568.59678 298.3,568.44 C307.22,568.62 326.52,563.89 326.52,563.89 C330.67,563 332.42,562.25 334.76,560.58 C335.07,560.36 335.4,560.12 335.76,559.86 C336.76,559.11 337.91,558.19 339.39,557.05 C342.09,554.98 345.88,552.17 351.84,548.23 C352.36,547.89 352.91,547.55 353.5,547.23 C354.09,546.91 354.84,546.48 355.56,546.12 C361.331926,543.386568 367.417374,541.371519 373.68,540.12 C378.87499,539.003237 384.146456,538.277867 389.45,537.95 L390.24,537.95 C405.24,537.15 420.56,539.72 429.52,548.15 C431.086696,549.631455 432.451736,551.312538 433.58,553.15 C434.127559,554.022641 434.615343,554.93139 435.04,555.87 C435.857357,557.660587 436.464731,559.539756 436.85,561.47 C436.923333,561.83 436.983333,562.19 437.03,562.55 C437.03,562.66 437.03,562.76 437.03,562.87 C437.03,563.16 437.09,563.45 437.11,563.74 C437.91,575.71 425.49,586.53 409.75,595.33 Z" id="Shape" fill="#000000" opacity="0.1"></path>
            <path d="M115.32,650.59 C115.32,650.59 147.72,656.59 164.65,655.5 C164.65,655.5 195.78,657.14 212.53,652.23 C212.53,652.23 261.53,642.03 267.14,640.03 C272.75,638.03 294.63,631.47 294.63,631.47 C294.63,631.47 337.23,613.63 349.24,616.54 C349.24,616.54 443.54,592.15 436.8,559.2 C430.06,526.25 370.54,533.72 351.8,546.09 C333.06,558.46 335.8,559.75 326.5,561.75 C326.5,561.75 307.2,566.48 298.28,566.3 C289.36,566.12 249.49,572.49 249.49,572.49 C249.49,572.49 218.18,573.95 198.89,567.94 C179.6,561.93 175.77,567.21 175.77,567.21 L115.32,650.59 Z" id="Shape" fill="#D09560"></path>
            <path d="M185.58,565.07 C185.584916,565.109849 185.584916,565.150151 185.58,565.19 C185.510198,565.933256 185.317584,566.659784 185.01,567.34 C181.17,576.76 159.37,602.17 159.37,602.17 C158.376126,605.188523 157.176652,608.13542 155.78,610.99 C152.776168,617.09191 149.316354,622.958552 145.43,628.54 C139.669267,636.890432 133.379732,644.863412 126.6,652.41 L126.55,652.41 C125.687273,653.050033 124.789185,653.640968 123.86,654.18 C121.51,655.58 117.98,657.31 114.65,657.52 C114.082972,657.553766 113.514064,657.537033 112.95,657.47 C113.3,657.47 113.64,657.39 113.95,657.33 L112.73,656.97 L111.06,656.45 C108.26,655.57 105.483333,654.606667 102.73,653.56 L101.06,652.92 C98.3933333,651.893333 95.7833333,650.79 93.23,649.61 L91.56,648.85 C88.8933333,647.61 86.2833333,646.3 83.73,644.92 C82.81,644.44 81.9,643.92 81,643.43 C78.28,641.91 75.6133333,640.316667 73,638.65 C70.2266667,636.883333 67.5133333,635.04 64.86,633.12 C62.86,629.41 61.21,626.12 60.31,624.35 C58.67,621.06 58.53,616.35 58.73,612.94 C58.73,612.59 58.73,612.26 58.79,611.94 C58.96,609.8 59.22,608.33 59.22,608.33 C57.7382384,606.34897 56.4014303,604.26355 55.22,602.09 C54.5412434,601.0109 54.1552407,599.773623 54.1,598.5 C54.1452281,597.989037 54.0978002,597.474105 53.96,596.98 C53.19,593.82 49.88,588.39 46.82,584.98 C44.54,582.47 44.4,573.09 44.62,566.44 C44.75,562.44 45,559.5 45,559.5 C44.5518968,559.210807 44.2165656,558.776641 44.05,558.27 C43.2459094,556.081373 42.7021702,553.805723 42.43,551.49 C42.43,551.16 42.34,550.83 42.29,550.49 C41.65,545.9 41.36,541.29 41.36,541.29 C33.96,535.9 30.44,527.49 28.8,519.99 L28.59,518.99 C27.6893269,514.380417 27.3069508,509.684571 27.45,504.99 C27.45,504.54 27.45,504.2 27.45,503.99 C27.45,503.78 27.45,503.74 27.45,503.74 C27.45,503.74 28.43,482.07 31.17,473.61 C31.28,473.25 31.4,472.92 31.52,472.61 C31.7218671,472.078703 31.9835514,471.572109 32.3,471.1 C33.3,469.77 34.01,467.26 34.6,464.29 C35.01,462.23 35.35,459.94 35.6,457.66 C35.83,455.76 36.01,453.87 36.15,452.12 C36.54,447.44 36.66,443.79 36.66,443.79 L34.81,434.67 C34.3,432.18 33.91,429.67 33.64,427.16 C33.64,426.83 33.56,426.5 33.52,426.16 C33.0523054,421.524839 32.9686872,416.858942 33.27,412.21 C33.27,411.87 33.27,411.54 33.33,411.21 C34.1108133,400.62116 36.8790687,390.274127 41.49,380.71 L41.99,379.71 C42.6566667,378.376667 43.3566667,377.066667 44.09,375.78 C44.62,374.83 45.18,373.89 45.76,372.96 C47.2975648,370.469658 48.9665923,368.06292 50.76,365.75 C51.02,365.41 51.29,365.08 51.56,364.75 C54.6803756,360.88148 58.1481641,357.306579 61.92,354.07 C72.02,345.39 81.29,341.62 89.71,341.33 C126.53,340.03 147.18,405.15 150.52,416.56 C150.84,417.66 151,418.26 151,418.26 C151,418.26 165.92,433.19 161.55,439.74 C160.702703,441.181813 160.186901,442.79412 160.04,444.46 C158.84,453.27 162.28,467.78 162.28,467.78 C162.28,467.78 163.5,471.78 167.06,481.36 L168.11,484.16 C170.34,490.16 170.86,500.23 169.58,509.25 C168.35,517.89 165.46,525.53 160.83,527.49 C151.36,531.49 153.91,535.49 156.09,538.78 C157.385428,541.138344 158.466437,543.608265 159.32,546.16 C160.69,549.85 161.96,553.73 162.44,555.24 C162.58,555.66 162.65,555.89 162.65,555.89 C163.976442,555.376554 165.354419,555.007753 166.76,554.79 C168.55,554.54 170.32,554.72 170.66,556.25 C170.84,557.07 171.87,558.04 173.32,559.01 C177.62,561.97 185.58,565.07 185.58,565.07 Z" id="Shape" fill="#000000" opacity="0.1"></path>
            <path d="M183.4,565.07 L183.4,565.07 C183.338837,565.830809 183.14597,566.575209 182.83,567.27 C179.01,576.7 157.19,602.17 157.19,602.17 C156.191781,605.186923 154.992425,608.13353 153.6,610.99 C151.186796,615.917635 148.457779,620.684227 145.43,625.26 C139.161327,634.716214 132.216521,643.706362 124.65,652.16 L124.42,652.41 C124.42,652.41 123.54,653.08 122.14,653.94 C119.63843,655.536784 116.881944,656.693493 113.99,657.36 L112.77,657 L111.1,656.48 C108.3,655.6 105.523333,654.636667 102.77,653.59 L101.1,652.95 C98.4333333,651.923333 95.8233333,650.82 93.27,649.64 L91.6,648.88 C88.9333333,647.64 86.3233333,646.33 83.77,644.95 C82.85,644.47 81.94,643.95 81.04,643.46 C78.32,641.94 75.6533333,640.346667 73.04,638.68 C70.2666667,636.913333 67.5533333,635.07 64.9,633.15 C63.6733333,632.27 62.46,631.366667 61.26,630.44 C59.91,627.88 58.83,625.72 58.16,624.38 C56.52,621.09 56.38,616.38 56.58,612.97 C56.58,612.62 56.58,612.29 56.64,611.97 C56.81,609.83 57.07,608.36 57.07,608.36 C57.07,608.36 56.26,607.27 55.28,605.79 C54.73,604.97 54.14,604.02 53.61,603.08 C52.61,601.32 51.83,599.54 51.98,598.53 C52.0002784,598.35726 52.0002784,598.18274 51.98,598.01 C51.9649802,597.672351 51.914707,597.337196 51.83,597.01 C51.06,593.85 47.74,588.42 44.68,585.01 C42.4,582.5 42.26,573.12 42.47,566.47 C42.47,566.13 42.47,565.8 42.47,565.47 C42.61,562.02 42.82,559.53 42.82,559.53 C41.69,559.04 40.82,555.41 40.26,551.53 L40.11,550.53 C39.47,545.94 39.18,541.33 39.18,541.33 C31.78,535.94 28.26,527.53 26.63,520.03 C25.4944311,514.777117 25.0573212,509.397303 25.33,504.03 C25.33,503.87 25.33,503.78 25.33,503.78 C25.33,503.78 26.19,482 28.93,473.53 C29.04,473.17 29.16,472.84 29.28,472.53 C29.5199616,472.010955 29.8185736,471.521097 30.17,471.07 C31.69,468.95 32.7,463.85 33.36,458.63 L33.48,457.63 C34.31,450.63 34.54,443.76 34.54,443.76 L32.68,434.64 C32.1733333,432.14 31.7833333,429.636667 31.51,427.13 C31.46,426.8 31.43,426.46 31.39,426.13 C30.9223966,421.494834 30.8387785,416.828944 31.14,412.18 C31.14,411.84 31.14,411.51 31.21,411.18 C31.9860743,400.590359 34.754563,390.242454 39.37,380.68 C39.53,380.34 39.69,380.01 39.87,379.68 C41.1557522,377.082784 42.5846147,374.558905 44.15,372.12 C44.69,371.27 45.24,370.43 45.82,369.6 C46.73,368.28 47.68,366.98 48.67,365.72 L49.47,364.72 C52.5636937,360.866264 56.0011596,357.301609 59.74,354.07 C70.74,344.64 80.74,341 89.74,341.33 C125.19,342.6 145.09,405.38 148.36,416.56 C148.68,417.66 148.84,418.26 148.84,418.26 C148.84,418.26 163.77,433.19 159.4,439.74 C158.552703,441.181813 158.036901,442.79412 157.89,444.46 C156.68,453.27 160.13,467.78 160.13,467.78 C160.13,467.78 161.35,471.78 164.91,481.36 C165.23,482.25 165.58,483.18 165.91,484.16 C168.14,490.16 168.66,500.23 167.38,509.25 C166.15,517.9 163.27,525.53 158.63,527.49 C149.17,531.49 151.71,535.49 153.9,538.78 C155.195428,541.138344 156.276437,543.608265 157.13,546.16 C158.86,550.87 160.45,555.89 160.45,555.89 C161.104464,555.637443 161.772105,555.42046 162.45,555.24 C163.84119,554.782513 165.31439,554.629055 166.77,554.79 C167.596418,554.854059 168.287189,555.44384 168.48,556.25 C168.75,557.45 170.82,558.94 173.33,560.35 C176.589093,562.12362 179.95182,563.699794 183.4,565.07 Z" id="Shape" fill="#CED7E7"></path>
            <path d="M51.78,468.91 C55.24,468.73 92.38,454.35 100.03,459.26 C107.68,464.17 155.03,496.03 155.03,496.03 C155.03,496.03 125.36,457.26 99.51,448.16 C73.66,439.06 51.78,468.91 51.78,468.91 Z" id="Shape" fill="#000000" opacity="0.1"></path>
            <path d="M105.17,527.53 C105.17,527.53 142.31,534.99 147.95,540.09 L105.17,527.53 Z" id="Shape" fill="#000000" opacity="0.1"></path>
            <path d="M98.02,583.07 C97.48,583.62 84.02,613.83 85.1,613.83 C86.18,613.83 97.66,595.83 97.66,595.83 L98.02,583.07 Z" id="Shape" fill="#000000" opacity="0.1"></path>
            <path d="M123.33,546.82 C123.33,546.82 112.41,550.65 113.68,551.01 C114.95,551.37 122.96,548.46 123.33,546.82 Z" id="Shape" fill="#000000" opacity="0.1"></path>
            <path d="M112.41,592.52 C114.23,596.34 120.05,607.81 121.33,605.99 C122.61,604.17 112.41,592.52 112.41,592.52 Z" id="Shape" fill="#000000" opacity="0.1"></path>
            <path d="M248.73,289.74 L247.17,291.96 C247.17,291.96 234.78,283.23 229.69,278.86 C224.6,274.49 212.58,294.51 203.11,299.97 C193.64,305.43 177.63,306.89 177.63,306.89 C177.63,306.89 165.25,294.51 165.63,290.89 C166.01,287.27 159.81,286.16 159.44,283.61 C159.07,281.06 156.89,273.78 153.98,270.14 C152.44,268.22 152.22,262.21 152.36,256.98 C153.36,256.78 153.98,256.67 153.98,256.67 C155.534276,253.845689 157.499001,251.267619 159.81,249.02 C163.09,246.11 168.18,228.27 168.18,228.27 C171.09,218.44 176.91,221.35 176.91,221.35 C176.91,236.28 192.21,241.74 199.85,247.93 C207.49,254.12 219.51,270.14 228.98,273.42 C236.75,276.07 245.84,286.32 248.73,289.74 Z" id="Shape" fill="#000000" opacity="0.1"></path>
            <path d="M248.73,287.55 L247.17,289.78 C247.17,289.78 234.73,281.07 229.64,276.67 C224.55,272.27 212.53,292.32 203.06,297.78 C193.59,303.24 177.58,304.71 177.58,304.71 C177.58,304.71 165.2,292.32 165.58,288.71 C165.96,285.1 159.76,283.98 159.39,281.42 C159.02,278.86 156.84,271.59 153.93,267.95 C152.39,266.03 152.17,260.02 152.31,254.79 L153.93,254.49 C155.484276,251.665689 157.449001,249.087619 159.76,246.84 C163.04,243.92 168.13,226.09 168.13,226.09 C171.04,216.26 176.86,219.16 176.86,219.16 C176.86,234.09 192.16,239.56 199.8,245.75 C207.44,251.94 219.46,267.95 228.93,271.23 C236.75,273.92 245.84,284.13 248.73,287.55 Z" id="Shape" fill="#CED7E7"></path>
            <path d="M249.66,290.51 C249.66,290.51 238.93,296.33 230.55,296.88 C229.453033,296.931188 228.35372,296.867508 227.27,296.69 L227.27,296.69 C227.27,296.69 236.52,289.78 245.11,288.37 L249.66,290.51 Z" id="Shape" fill="#000000" opacity="0.1"></path>
            <path d="M271.51,320.18 C271.51,320.18 257.98,314.91 253.51,322.84 C253.66,319.2 253.72,316.18 253.72,316.18 L268.47,313.26 C268.47,313.26 269.89,315.89 271.55,319.43 C271.51,319.9 271.51,320.18 271.51,320.18 Z" id="Shape" fill="#000000" opacity="0.1"></path>
            <path d="M227.27,296.69 C227.27,296.69 243.48,286.96 251.27,287.78 C259.44,288.63 275.27,289.23 275.27,289.23 C275.27,289.23 269.81,301.61 270.54,304.16 C271.27,306.71 271.45,319.09 271.45,319.09 C271.45,319.09 255.07,312.72 252.34,324.55 C252.34,324.55 243.42,311.26 237.41,307.25 C233.422103,304.368838 229.987029,300.791484 227.27,296.69 Z" id="Shape" fill="#63667E"></path>
            <path d="M318.84,307.99 C314.11,307.99 297.36,297.42 293.72,290.51 C290.08,283.6 284.98,291.23 280.25,293.79 C277.25,295.43 265.36,292 258.95,289.51 C262.2,287.3 269.4,281.08 271.51,279.59 C274.05,277.76 276.61,248.27 276.61,248.27 C285.71,243.54 295.54,286.5 295.54,286.5 C295.54,286.5 312.66,291.6 314.11,295.24 C314.39,295.96 315.68,297.24 317.62,298.79 C319.62,303.83 320.72,307.99 318.84,307.99 Z" id="Shape" fill="#000000" opacity="0.1"></path>
            <path d="M318.84,305.8 C314.11,305.8 297.36,295.24 293.72,288.33 C290.08,281.42 284.98,289.05 280.25,291.6 C277.25,293.24 267.72,290.07 261.31,287.6 C264.56,285.4 269.4,278.92 271.51,277.42 C274.05,275.6 276.61,246.11 276.61,246.11 C285.71,241.38 295.54,284.34 295.54,284.34 C295.54,284.34 312.66,289.44 314.11,293.08 C314.39,293.8 315.68,295.08 317.62,296.63 C319.62,301.64 320.72,305.8 318.84,305.8 Z" id="Shape" fill="#CED7E7"></path>
            <path d="M383.53,624.77 L541.84,492.77 C543.419698,491.435513 545.432584,490.724246 547.5,490.77 L606.56,492.32 C606.56,492.32 610.65,495.32 604.65,501.88 L455.31,624.43 C453.696229,625.749352 451.693322,626.50132 449.61,626.57 L385.03,628.71 C384.079338,628.739834 383.214386,628.163418 382.875976,627.274527 C382.537566,626.385636 382.80019,625.379939 383.53,624.77 L383.53,624.77 Z" id="Shape" fill="#FF6666"></path>
            <path d="M460.11,608.53 C460.11,608.53 494.69,658.05 533.11,611.99 C571.53,565.93 560.42,541.73 548.77,540.45 C537.12,539.17 471.57,589.6 460.11,608.53 Z" id="Shape" fill="#D09560"></path>
        </g>
    </g>
</svg>