<svg height="105" viewBox="0 0 378 105" width="378" xmlns="http://www.w3.org/2000/svg" xmlns:xlink="http://www.w3.org/1999/xlink"><linearGradient id="a" x1="50%" x2="50%" y1="100%" y2="2.507175%"><stop offset="0" stop-color="#0772b9"/><stop offset="1" stop-color="#59c6ff"/></linearGradient><linearGradient id="b" x1="50%" x2="50%" y1="0%" y2="98.736448%"><stop offset="0" stop-color="#59c6ff"/><stop offset="1" stop-color="#0772b9"/></linearGradient><path d="m28.5 23.9c5.1 0 9.8 1.2 14 3.7 4.3 2.4 7.6 5.7 10 10 2.4 4.2 3.6 8.9 3.6 14.1s-1.1 10-3.4 14.1c-4.1768119 8.4652835-12.8617501 13.7619274-22.3 13.6-7.4475403.0294351-14.5074656-3.3166753-19.2-9.1v27c.0618325 1.3733521-.4445224 2.711576-1.4 3.7-.988424.955478-2.32664786 1.461833-3.7 1.4-1.33908692.034404-2.63598114-.469944-3.6-1.4-.99207808-.971543-1.53546067-2.311887-1.5-3.7v-45.6c-.08622043-9.90952 5.0905408-19.1211099 13.6-24.2 4.1-2.4 8.8-3.6 13.9-3.6zm0 46.5c6.4947168.1263347 12.5001778-3.438197 15.5-9.2 1.5-2.8 2.3-6 2.3-9.5s-.8-6.7-2.3-9.6c-2.2706379-4.2573291-6.1895311-7.3957683-10.8401286-8.6812993-4.6505975-1.2855311-9.6250281-.6054089-13.7598714 1.8812993-2.6827405 1.647397-4.8618873 3.9994919-6.3 6.8-1.5567632 2.9575528-2.3475165 6.2580885-2.3 9.6 0 3.5.8 6.7 2.3 9.5 3.018237 5.696453 8.9534853 9.2421858 15.4 9.2zm72.6-46.5c7.379443-.1114184 14.485127 2.7916715 19.675389 8.0385545 5.190261 5.246883 8.016087 12.3836452 7.824611 19.7614455v22.3c.0275 1.3608484-.500984 2.674093-1.463445 3.6365545-.962462.9624616-2.275707 1.4909459-3.636555 1.4634455-1.360848.0275004-2.674093-.5009839-3.636555-1.4634455-.962461-.9624615-1.490945-2.2757061-1.463445-3.6365545v-3.7c-4.705191 5.8226456-11.81425 9.1745852-19.3 9.1-9.4382499.1619274-18.1231881-5.1347165-22.3-13.6-2.2-4.2-3.3-8.9-3.3-14.1s1.2-10 3.6-14.2c5.0132678-8.4776964 14.1510875-13.6557943 24-13.6zm0 46.5c6.458956.0881746 12.416362-3.470795 15.4-9.2 1.5-2.8 2.3-6 2.3-9.5.047516-3.3419115-.743237-6.6424472-2.3-9.6-3.001085-5.7127191-8.947292-9.2649988-15.4-9.2-6.458956-.0881746-12.4163617 3.470795-15.4 9.2-1.6 2.9-2.4 6-2.4 9.6 0 3.5.8 6.7 2.4 9.5 2.9836383 5.729205 8.941044 9.2881746 15.4 9.2zm94.9-69.5c1.373352-.06183254 2.711576.44452243 3.7 1.4.955478.988424 1.461833 2.32664786 1.4 3.7v45.6c.071663 9.8536742-5.059841 19.0143588-13.5 24.1-4.244667 2.4803813-9.084111 3.7593774-14 3.7-5.1 0-9.8-1.2-14-3.7-4.183829-2.357798-7.642202-5.816171-10-10-2.4-4.2-3.6-8.9-3.6-14.1s1.1-10 3.3-14.1c2.3-4.3 5.3-7.6 9.3-10 3.9-2.4 8.2-3.6 13-3.6 7.482519-.059845 14.585493 3.2892256 19.3 9.1v-27c-.061833-1.37335214.444522-2.711576 1.4-3.7.988424-.95547757 2.326648-1.46183254 3.7-1.4zm-22.4 69.5c6.458956.0881746 12.416362-3.470795 15.4-9.2 1.556763-2.9575528 2.347516-6.2580885 2.3-9.6 0-3.5-.8-6.7-2.3-9.6-3.045174-5.6577501-8.975095-9.1617941-15.4-9.1-6.437074-.1074875-12.388981 3.4095485-15.4 9.1-1.6 2.9-2.4 6-2.4 9.6 0 3.5.8 6.7 2.3 9.6 3.085141 5.680394 9.035883 9.2124472 15.5 9.2zm51.5-64.3c-.035461-1.38811302.507922-2.72845675 1.5-3.7 1-1 2.2-1.5 3.7-1.5 1.422468-.06389232 2.804702.4817264 3.8 1.5.955478.988424 1.461833 2.32664786 1.4 3.7v67.7c0 1.5-.5 2.7-1.4 3.7-.995298 1.0182736-2.377532 1.5638923-3.8 1.5-1.388113.0354607-2.728457-.5079219-3.7-1.5-.992078-.9715433-1.535461-2.311887-1.5-3.7zm59.2 17.8c5.3 0 10 1.2 14.1 3.6 4.2 2.3 7.5 5.6 9.9 9.8 2.3 4.2 3.5 9 3.5 14.4.082818 4.9883749-1.122694 9.9137533-3.5 14.3-2.286518 4.1184043-5.681596 7.5134819-9.8 9.8-4.1 2.4-8.9 3.6-14.2 3.6s-10.1-1.2-14.3-3.6c-4.124956-2.2778195-7.52218-5.6750441-9.8-9.8-2.377306-4.3862467-3.582818-9.3116251-3.5-14.3 0-5.4 1.2-10.2 3.5-14.4 2.27782-4.1249559 5.675044-7.5221805 9.8-9.8 4.2-2.4 9-3.6 14.3-3.6zm0 9c-6.485101-.1933972-12.508429 3.3428792-15.5 9.1-1.565001 2.9904064-2.355748 6.3252923-2.3 9.7 0 3.6.8 6.8 2.3 9.6 3.009603 5.7399653 9.021092 9.2692909 15.5 9.1 3.4 0 6.4-.8 9.1-2.4 2.8-1.6 4.8-3.8 6.4-6.6 1.5-2.9 2.2-6.1 2.2-9.7s-.7-6.8-2.3-9.7c-1.422576-2.7852731-3.607456-5.1088762-6.3-6.7-2.759241-1.6112038-5.905048-2.440867-9.1-2.4zm72-9c7.9 0 14.4 3 19.6 9 .7.7 1 1.6 1 2.6 0 1.5-.7 2.7-2.2 3.7-.676748.4636629-1.479692.7080371-2.3.7-1.504623.0174087-2.937078-.6437245-3.9-1.8-1.496542-1.7005683-3.337134-3.0639694-5.4-4-2-.8-4.3-1.2-6.8-1.2-5.1 0-9.3 1.7-12.5 5.1-3.2 3.5-4.8 8-4.8 13.7 0 3.6.7 6.8 2.3 9.6 1.5 2.9 3.5 5.1 6.3 6.7 2.7 1.6 5.7 2.4 9.2 2.4 4.5 0 8.2-1.2 11-3.5 1.3-1 2.5-1.4 3.7-1.4 1 0 1.8.3 2.6.9 1.3 1 1.9 2.3 1.9 3.6 0 1-.4 1.9-1.2 2.7-4.891808 4.5031736-11.354339 6.9086712-18 6.7-5.3 0-10-1.2-14.2-3.6-4.166062-2.3473973-7.59459-5.8105566-9.9-10-2.3-4.2-3.5-8.9-3.5-14.1 0-5.3 1.1-10.1 3.4-14.4 2.4-4.2 5.6-7.5 9.7-9.8 4.1-2.4 8.8-3.6 14-3.6z" fill="url(#a)" stroke="url(#b)" stroke-width="2" transform="translate(0 1)"/></svg>