<?xml version="1.0" encoding="UTF-8"?>
<svg width="378px" height="105px" viewBox="0 0 378 105" version="1.1" xmlns="http://www.w3.org/2000/svg" xmlns:xlink="http://www.w3.org/1999/xlink">
    <!-- Generator: Sketch 44.1 (41455) - http://www.bohemiancoding.com/sketch -->
    <title>padloc</title>
    <desc>Created with Sketch.</desc>
    <defs>
        <linearGradient x1="50%" y1="100%" x2="50%" y2="2.50717474%" id="linearGradient-1">
            <stop stop-color="#0772B9" offset="0%"></stop>
            <stop stop-color="#59C6FF" offset="100%"></stop>
        </linearGradient>
        <linearGradient x1="50%" y1="0%" x2="50%" y2="98.7364477%" id="linearGradient-2">
            <stop stop-color="#59C6FF" offset="0%"></stop>
            <stop stop-color="#0772B9" offset="100%"></stop>
        </linearGradient>
    </defs>
    <g id="Page-1" stroke="none" stroke-width="1" fill="none" fill-rule="evenodd">
        <g id="padloc" transform="translate(0.000000, 1.000000)" stroke="url(#linearGradient-2)" stroke-width="2" fill="url(#linearGradient-1)" fill-rule="nonzero">
            <path d="M28.5,23.9 C33.6,23.9 38.3,25.1 42.5,27.6 C46.8,30 50.1,33.3 52.5,37.6 C54.9,41.8 56.1,46.5 56.1,51.7 C56.1,56.9 55,61.7 52.7,65.8 C48.5231881,74.2652835 39.8382499,79.5619274 30.4,79.4 C22.9524597,79.4294351 15.8925344,76.0833247 11.2,70.3 L11.2,97.3 C11.2618325,98.6733521 10.7554776,100.011576 9.8,101 C8.811576,101.955478 7.47335214,102.461833 6.1,102.4 C4.76091308,102.434404 3.46401886,101.930056 2.5,101 C1.50792192,100.028457 0.964539327,98.688113 1,97.3 L1,51.7 C0.913779574,41.79048 6.0905408,32.5788901 14.6,27.5 C18.7,25.1 23.4,23.9 28.5,23.9 Z M28.5,70.4 C34.9947168,70.5263347 41.0001778,66.961803 44,61.2 C45.5,58.4 46.3,55.2 46.3,51.7 C46.3,48.2 45.5,45 44,42.1 C41.7293621,37.8426709 37.8104689,34.7042317 33.1598714,33.4187007 C28.5092739,32.1331696 23.5348433,32.8132918 19.4,35.3 C16.7172595,36.947397 14.5381127,39.2994919 13.1,42.1 C11.5432368,45.0575528 10.7524835,48.3580885 10.8,51.7 C10.8,55.2 11.6,58.4 13.1,61.2 C16.118237,66.896453 22.0534853,70.4421858 28.5,70.4 L28.5,70.4 Z M101.1,23.9 C108.479443,23.7885816 115.585127,26.6916715 120.775389,31.9385545 C125.96565,37.1854375 128.791476,44.3221997 128.6,51.7 L128.6,74 C128.6275,75.3608484 128.099016,76.674093 127.136555,77.6365545 C126.174093,78.5990161 124.860848,79.1275004 123.5,79.1 C122.139152,79.1275004 120.825907,78.5990161 119.863445,77.6365545 C118.900984,76.674093 118.3725,75.3608484 118.4,74 L118.4,70.3 C113.694809,76.1226456 106.58575,79.4745852 99.1,79.4 C89.6617501,79.5619274 80.9768119,74.2652835 76.8,65.8 C74.6,61.6 73.5,56.9 73.5,51.7 C73.5,46.5 74.7,41.7 77.1,37.5 C82.1132678,29.0223036 91.2510875,23.8442057 101.1,23.9 Z M101.1,70.4 C107.558956,70.4881746 113.516362,66.929205 116.5,61.2 C118,58.4 118.8,55.2 118.8,51.7 C118.847516,48.3580885 118.056763,45.0575528 116.5,42.1 C113.498915,36.3872809 107.552708,32.8350012 101.1,32.9 C94.641044,32.8118254 88.6836383,36.370795 85.7,42.1 C84.1,45 83.3,48.1 83.3,51.7 C83.3,55.2 84.1,58.4 85.7,61.2 C88.6836383,66.929205 94.641044,70.4881746 101.1,70.4 L101.1,70.4 Z M196,0.9 C197.373352,0.838167461 198.711576,1.34452243 199.7,2.3 C200.655478,3.288424 201.161833,4.62664786 201.1,6 L201.1,51.6 C201.171663,61.4536742 196.040159,70.6143588 187.6,75.7 C183.355333,78.1803813 178.515889,79.4593774 173.6,79.4 C168.5,79.4 163.8,78.2 159.6,75.7 C155.416171,73.342202 151.957798,69.883829 149.6,65.7 C147.2,61.5 146,56.8 146,51.6 C146,46.4 147.1,41.6 149.3,37.5 C151.6,33.2 154.6,29.9 158.6,27.5 C162.5,25.1 166.8,23.9 171.6,23.9 C179.082519,23.840155 186.185493,27.1892256 190.9,33 L190.9,6 C190.838167,4.62664786 191.344522,3.288424 192.3,2.3 C193.288424,1.34452243 194.626648,0.838167461 196,0.9 Z M173.6,70.4 C180.058956,70.4881746 186.016362,66.929205 189,61.2 C190.556763,58.2424472 191.347516,54.9419115 191.3,51.6 C191.3,48.1 190.5,44.9 189,42 C185.954826,36.3422499 180.024905,32.8382059 173.6,32.9 C167.162926,32.7925125 161.211019,36.3095485 158.2,42 C156.6,44.9 155.8,48 155.8,51.6 C155.8,55.1 156.6,58.3 158.1,61.2 C161.185141,66.880394 167.135883,70.4124472 173.6,70.4 L173.6,70.4 Z M225.1,6.1 C225.064539,4.71188698 225.607922,3.37154325 226.6,2.4 C227.6,1.4 228.8,0.9 230.3,0.9 C231.722468,0.836107682 233.104702,1.3817264 234.1,2.4 C235.055478,3.388424 235.561833,4.72664786 235.5,6.1 L235.5,73.8 C235.5,75.3 235,76.5 234.1,77.5 C233.104702,78.5182736 231.722468,79.0638923 230.3,79 C228.911887,79.0354607 227.571543,78.4920781 226.6,77.5 C225.607922,76.5284567 225.064539,75.188113 225.1,73.8 L225.1,6.1 L225.1,6.1 Z M284.3,23.9 C289.6,23.9 294.3,25.1 298.4,27.5 C302.6,29.8 305.9,33.1 308.3,37.3 C310.6,41.5 311.8,46.3 311.8,51.7 C311.882818,56.6883749 310.677306,61.6137533 308.3,66 C306.013482,70.1184043 302.618404,73.5134819 298.5,75.8 C294.4,78.2 289.6,79.4 284.3,79.4 C279,79.4 274.2,78.2 270,75.8 C265.875044,73.5221805 262.47782,70.1249559 260.2,66 C257.822694,61.6137533 256.617182,56.6883749 256.7,51.7 C256.7,46.3 257.9,41.5 260.2,37.3 C262.47782,33.1750441 265.875044,29.7778195 270,27.5 C274.2,25.1 279,23.9 284.3,23.9 L284.3,23.9 Z M284.3,32.9 C277.814899,32.7066028 271.791571,36.2428792 268.8,42 C267.234999,44.9904064 266.444252,48.3252923 266.5,51.7 C266.5,55.3 267.3,58.5 268.8,61.3 C271.809603,67.0399653 277.821092,70.5692909 284.3,70.4 C287.7,70.4 290.7,69.6 293.4,68 C296.2,66.4 298.2,64.2 299.8,61.4 C301.3,58.5 302,55.3 302,51.7 C302,48.1 301.3,44.9 299.7,42 C298.277424,39.2147269 296.092544,36.8911238 293.4,35.3 C290.640759,33.6887962 287.494952,32.859133 284.3,32.9 L284.3,32.9 Z M356.3,23.9 C364.2,23.9 370.7,26.9 375.9,32.9 C376.6,33.6 376.9,34.5 376.9,35.5 C376.9,37 376.2,38.2 374.7,39.2 C374.023252,39.6636629 373.220308,39.9080371 372.4,39.9 C370.895377,39.9174087 369.462922,39.2562755 368.5,38.1 C367.003458,36.3994317 365.162866,35.0360306 363.1,34.1 C361.1,33.3 358.8,32.9 356.3,32.9 C351.2,32.9 347,34.6 343.8,38 C340.6,41.5 339,46 339,51.7 C339,55.3 339.7,58.5 341.3,61.3 C342.8,64.2 344.8,66.4 347.6,68 C350.3,69.6 353.3,70.4 356.8,70.4 C361.3,70.4 365,69.2 367.8,66.9 C369.1,65.9 370.3,65.5 371.5,65.5 C372.5,65.5 373.3,65.8 374.1,66.4 C375.4,67.4 376,68.7 376,70 C376,71 375.6,71.9 374.8,72.7 C369.908192,77.2031736 363.445661,79.6086712 356.8,79.4 C351.5,79.4 346.8,78.2 342.6,75.8 C338.433938,73.4526027 335.00541,69.9894434 332.7,65.8 C330.4,61.6 329.2,56.9 329.2,51.7 C329.2,46.4 330.3,41.6 332.6,37.3 C335,33.1 338.2,29.8 342.3,27.5 C346.4,25.1 351.1,23.9 356.3,23.9 Z" id="type"></path>
        </g>
    </g>
</svg>